<?xml version="1.0" standalone="no"?>
<!DOCTYPE svg PUBLIC "-//W3C//DTD SVG 20010904//EN"
 "http://www.w3.org/TR/2001/REC-SVG-20010904/DTD/svg10.dtd">
<svg version="1.0" xmlns="http://www.w3.org/2000/svg"
 width="300.000000pt" height="211.000000pt" viewBox="0 0 300.000000 211.000000"
 preserveAspectRatio="xMidYMid meet">
<metadata>
Created by potrace 1.10, written by Peter Selinger 2001-2011
</metadata>
<g transform="translate(0.000000,211.000000) scale(0.100000,-0.100000)"
fill="#000000" stroke="none">
<path d="M531 2101 c26 -4 54 -12 62 -19 13 -11 15 -10 10 7 -5 18 -13 21 -62
20 l-56 -2 46 -6z"/>
<path d="M1000 2085 c0 -14 4 -25 8 -25 5 0 19 11 32 25 l23 25 -31 0 c-27 0
-32 -4 -32 -25z"/>
<path d="M1408 2091 c-26 -10 -66 -35 -91 -55 -53 -44 -68 -89 -74 -228 -2
-54 -7 -99 -11 -99 -51 -8 -83 -6 -120 8 -40 15 -44 15 -60 0 -15 -16 -15 -17
6 -17 13 0 35 -6 50 -14 58 -29 169 -14 158 22 -24 74 -4 213 39 282 33 52
109 90 198 97 91 8 105 22 22 22 -44 0 -88 -7 -117 -18z"/>
<path d="M1793 2098 c20 -7 35 -7 50 0 18 9 14 11 -28 11 -46 -1 -48 -1 -22
-11z"/>
<path d="M2045 2042 c-73 -71 -101 -102 -92 -102 3 0 24 19 46 42 22 23 43 40
46 36 4 -3 -5 -35 -19 -70 -31 -78 -31 -78 -3 -78 17 0 19 2 8 9 -12 8 -11 18
8 63 32 80 59 121 76 114 11 -4 15 2 15 24 0 17 -3 30 -7 30 -5 0 -39 -31 -78
-68z"/>
<path d="M2373 2093 c-3 -10 -14 -37 -25 -60 -11 -23 -18 -55 -16 -70 2 -18
-2 -27 -10 -25 -7 1 -12 -8 -12 -20 0 -17 3 -19 9 -9 5 7 13 11 19 8 5 -4 11
18 15 51 2 32 14 77 26 100 12 23 17 42 11 42 -6 0 -13 -8 -17 -17z"/>
<path d="M2290 2043 c0 -12 4 -24 9 -27 5 -3 7 -15 4 -25 -3 -10 0 -22 6 -25
17 -11 14 57 -4 80 -14 19 -14 19 -15 -3z"/>
<path d="M2190 1975 c-1 -5 -2 -17 -1 -26 1 -8 -10 -32 -23 -52 -31 -45 -20
-49 18 -6 25 28 27 35 18 63 -5 17 -11 27 -12 21z"/>
<path d="M904 1959 c-12 -5 3 -8 40 -8 72 -1 126 -25 195 -87 58 -52 58 -71
-2 -76 -40 -3 -41 -4 -14 -12 43 -13 77 6 77 44 0 16 -4 30 -9 30 -4 0 -30 17
-57 39 -27 21 -64 46 -81 55 -36 18 -119 26 -149 15z"/>
<path d="M1800 1898 c1 -32 1 -32 16 -13 8 11 23 19 32 17 10 -1 7 4 -8 12
-36 22 -40 20 -40 -16z"/>
<path d="M771 1909 c2 -8 -3 -25 -10 -37 -18 -34 -8 -37 16 -4 17 24 18 29 6
41 -12 11 -14 11 -12 0z"/>
<path d="M2678 1904 c-4 -5 -6 -26 -6 -47 0 -61 -47 -96 -54 -40 -2 23 -5 20
-13 -18 l-10 -44 42 10 c38 8 43 13 43 38 0 15 7 38 15 51 13 19 13 25 1 41
-7 10 -15 14 -18 9z"/>
<path d="M2340 1864 c-9 -17 -20 -24 -32 -21 -10 3 -22 -2 -26 -10 -5 -8 -13
-14 -18 -13 -5 1 -10 -3 -12 -9 -7 -21 51 -11 89 17 43 30 45 35 26 51 -11 8
-17 5 -27 -15z"/>
<path d="M914 1821 c-5 -5 -25 -14 -45 -20 -36 -11 -56 -15 -153 -28 -51 -6
-100 -31 -143 -71 -15 -14 -33 -22 -44 -19 -22 6 -26 -24 -9 -67 14 -37 -4
-33 -35 9 l-27 34 15 67 c18 76 11 74 -22 -8 l-23 -58 31 -31 c17 -17 31 -35
31 -40 0 -5 9 -9 19 -9 10 0 38 -9 62 -20 52 -23 69 -25 69 -6 0 16 -35 40
-72 50 -37 9 -35 30 5 67 50 47 126 82 192 90 62 7 184 52 168 62 -6 4 -14 2
-19 -2z"/>
<path d="M2883 1823 c-12 -2 -27 -11 -33 -19 -9 -9 -35 -14 -84 -15 l-71 -2
69 -8 c58 -8 72 -7 87 7 13 12 38 17 84 17 39 0 65 5 65 11 0 11 -78 17 -117
9z"/>
<path d="M891 1761 c-23 -6 -22 -8 17 -23 40 -16 41 -16 32 2 -13 25 -21 28
-49 21z"/>
<path d="M2419 1738 c-78 -19 -104 -53 -96 -124 l4 -39 1 41 c2 31 9 47 35 71
28 27 41 32 110 38 42 4 75 11 72 16 -7 10 -77 8 -126 -3z"/>
<path d="M1005 1665 c24 -29 48 -62 53 -72 6 -10 14 -15 18 -11 4 4 -1 20 -12
35 -10 15 -23 39 -30 52 -7 13 -26 30 -43 37 -30 13 -30 12 14 -41z"/>
<path d="M840 1692 c0 -9 70 -45 76 -39 2 2 -14 14 -36 26 -22 12 -40 18 -40
13z"/>
<path d="M644 1644 c-18 -15 -18 -15 6 -10 14 3 31 6 38 6 7 0 10 5 7 10 -9
14 -28 12 -51 -6z"/>
<path d="M1273 1610 c-18 -28 -33 -54 -33 -60 0 -13 -13 -13 -27 1 -19 19
-114 14 -125 -6 -9 -15 -11 -15 -24 2 -14 17 -15 17 -9 -4 11 -41 -9 -24 -35
27 -14 29 -29 49 -36 46 -7 -3 -18 2 -24 10 -7 8 -17 14 -23 14 -6 0 7 -19 30
-42 44 -46 73 -96 73 -126 0 -16 16 -28 82 -60 4 -2 0 10 -8 27 -8 17 -14 45
-12 63 3 32 4 33 47 32 34 -1 50 -7 66 -25 11 -13 29 -31 39 -39 18 -14 18
-13 11 18 -16 73 56 168 100 132 8 -7 15 -19 15 -26 0 -8 8 -14 18 -15 54 -1
97 -10 117 -23 22 -14 54 -101 41 -113 -3 -3 -1 -12 5 -19 7 -9 7 -19 -1 -34
-6 -12 -9 -31 -7 -43 4 -19 4 -18 6 4 2 49 103 119 172 119 29 0 31 -2 27 -30
-3 -22 0 -31 14 -36 22 -7 22 -7 2 -73 -8 -28 -13 -60 -9 -70 3 -12 -5 -25
-27 -42 -18 -13 -37 -24 -43 -25 -22 -1 -55 -16 -55 -25 0 -5 -5 -9 -11 -9 -5
0 -7 5 -4 10 3 6 1 10 -5 10 -7 0 -9 -8 -5 -21 6 -18 4 -21 -12 -17 -12 3 -20
0 -20 -8 0 -7 3 -12 6 -10 101 50 156 53 225 12 57 -33 69 -33 49 2 -36 63 18
113 98 92 21 -6 44 -19 52 -30 7 -10 26 -24 43 -31 28 -11 374 -32 383 -23 12
11 -17 18 -88 20 -43 1 -88 7 -100 13 -15 8 -27 9 -40 1 -25 -13 -41 -13 -41
1 0 6 9 13 20 16 11 3 20 9 20 13 0 16 -65 110 -77 110 -6 0 -21 12 -32 26
l-20 26 -28 -22 c-23 -18 -24 -21 -7 -16 32 10 49 -1 94 -60 l40 -54 -20 -20
c-11 -11 -23 -20 -27 -20 -17 0 -101 33 -150 58 -55 27 -61 39 -41 72 11 16 9
23 -10 40 -28 26 -28 38 0 67 16 18 18 23 6 23 -17 0 -42 -26 -51 -52 -4 -10
-17 -18 -29 -19 -16 0 -10 -4 17 -13 29 -8 41 -18 43 -34 5 -32 -15 -52 -52
-53 -17 0 -26 -3 -19 -5 8 -4 7 -15 -4 -42 -19 -47 -15 -44 -49 -32 -15 6 -24
14 -18 18 5 4 15 20 22 35 7 17 17 25 24 21 7 -4 8 -3 4 4 -4 7 -16 12 -27 12
-28 0 -23 17 9 26 20 5 23 8 10 11 -23 6 -23 19 -1 31 15 9 15 14 -2 67 -25
80 -41 94 -102 88 -27 -2 -64 -15 -85 -29 -36 -23 -38 -23 -38 -4 0 26 -36 91
-63 112 -12 10 -43 20 -69 24 -31 4 -53 14 -67 30 -14 16 -31 24 -53 23 -28 0
-38 -7 -65 -49z"/>
<path d="M276 1514 c-9 -8 -16 -20 -16 -26 0 -6 -7 -20 -17 -30 -13 -14 -13
-18 -2 -18 8 0 40 -20 71 -45 32 -25 62 -45 68 -45 19 0 10 21 -15 32 -14 6
-25 15 -25 19 0 5 -13 15 -30 24 -24 12 -30 22 -30 48 0 18 5 38 12 45 7 7 9
12 6 12 -4 0 -14 -7 -22 -16z"/>
<path d="M838 1512 c-16 -2 -28 -7 -28 -12 0 -4 -11 -11 -25 -14 -24 -6 -36
-26 -15 -26 6 0 10 -4 10 -10 0 -5 -13 -10 -29 -10 -24 0 -28 -3 -24 -20 3
-11 -2 -31 -11 -45 -9 -13 -16 -30 -16 -38 0 -26 -25 -46 -65 -51 -36 -5 -43
-2 -73 28 -32 33 -33 35 -13 45 11 6 26 11 34 11 8 0 20 7 27 15 21 25 -12 19
-82 -16 -35 -17 -79 -31 -99 -32 -55 -3 -37 -15 34 -22 61 -7 117 -38 117 -65
0 -13 5 -13 64 5 27 8 55 15 63 15 8 0 38 -21 66 -47 29 -27 62 -54 75 -61 20
-11 21 -11 11 5 -7 10 -38 39 -70 66 -80 65 -82 81 -24 168 26 39 57 75 69 80
16 7 47 6 104 -3 45 -8 80 -13 78 -11 -16 16 -96 48 -99 39 -2 -7 -11 -8 -28
-1 -13 6 -36 9 -51 7z"/>
<path d="M1440 1491 c0 -11 -3 -27 -7 -37 -6 -16 -7 -16 -14 2 -7 17 -8 17 -8
-4 -1 -13 -5 -31 -10 -41 -5 -9 -6 -23 -1 -30 6 -10 12 -7 25 13 17 26 34 116
21 116 -3 0 -6 -9 -6 -19z"/>
<path d="M1298 1463 c-4 -20 17 -122 27 -131 4 -4 6 12 3 35 -2 24 -1 44 3 45
9 4 -10 68 -21 68 -4 0 -10 -8 -12 -17z"/>
<path d="M2350 1456 c0 -10 6 -30 14 -44 39 -77 96 -220 96 -244 0 -10 5 -18
10 -18 6 0 10 1 10 3 -1 26 -106 296 -121 312 -6 5 -9 2 -9 -9z"/>
<path d="M0 1408 c0 -10 4 -18 10 -18 5 0 21 -17 35 -37 14 -21 25 -31 25 -22
0 23 -69 99 -70 77z"/>
<path d="M1089 1386 l21 -22 -51 -22 c-70 -31 -102 -68 -96 -109 3 -17 15 -41
27 -53 17 -17 20 -29 15 -59 -6 -34 -2 -43 48 -107 59 -76 75 -106 51 -97 -8
3 -14 1 -12 -4 4 -12 -43 -103 -53 -103 -4 0 -10 8 -13 18 -3 9 -3 0 0 -20 3
-23 1 -38 -6 -38 -5 0 -10 -4 -10 -10 0 -5 -16 -30 -35 -56 -40 -53 -43 -66
-15 -94 16 -16 18 -25 10 -40 -12 -22 -3 -73 11 -64 5 3 9 1 9 -3 0 -5 -9 -14
-20 -21 -23 -14 -27 -12 -86 46 -19 18 -34 37 -34 42 0 13 -114 130 -127 130
-6 0 -14 7 -17 16 -3 8 -11 12 -17 9 -5 -4 -16 1 -23 11 -9 11 -15 13 -20 6
-4 -6 6 -18 25 -27 44 -23 131 -112 163 -167 21 -37 42 -55 88 -80 119 -63
183 -173 176 -305 -4 -93 9 -71 16 27 5 65 2 80 -20 124 -14 27 -38 63 -54 80
-17 16 -30 34 -30 38 0 5 -3 7 -8 4 -4 -2 -16 2 -27 10 -10 8 -14 14 -7 14 6
0 26 16 44 36 38 40 64 39 71 -4 3 -22 4 -20 6 9 0 20 8 42 16 49 8 7 16 10
16 6 1 -3 3 -10 4 -16 1 -5 4 -18 5 -27 2 -10 6 4 9 31 5 44 8 48 21 35 8 -9
21 -14 27 -12 7 3 23 -3 35 -11 34 -24 51 -20 102 29 34 32 46 50 42 63 -5 15
-4 14 9 -2 8 -10 16 -24 18 -30 3 -8 8 -7 18 2 7 6 28 12 45 12 25 0 32 -4 32
-17 -1 -10 2 -36 6 -58 7 -37 9 -39 22 -20 13 17 14 15 14 -26 0 -24 4 -39 8
-33 4 6 28 14 53 17 42 6 49 3 74 -23 26 -27 69 -46 90 -41 6 2 15 4 22 5 22
4 25 13 28 78 2 35 6 74 10 88 7 24 7 24 -8 5 -16 -20 -16 -20 -30 0 -17 23
-12 39 9 31 8 -3 17 1 21 10 4 11 18 15 52 13 45 -2 88 12 103 35 16 23 7 49
-31 88 -30 29 -50 41 -81 45 -22 3 -43 10 -46 15 -10 16 4 53 36 93 16 21 30
46 30 56 0 10 9 24 20 32 19 13 19 15 2 30 -25 23 -44 7 -46 -42 -2 -26 -10
-49 -24 -64 -12 -13 -22 -27 -22 -32 0 -17 -76 -78 -127 -102 -77 -36 -75 -47
2 -18 36 13 70 27 75 30 5 3 23 -1 39 -10 17 -8 42 -15 56 -15 16 0 41 -15 68
-39 40 -38 41 -41 25 -57 -12 -13 -31 -17 -61 -16 -24 2 -57 -2 -72 -8 -37
-14 -116 3 -165 36 -19 13 -44 24 -56 24 -30 0 -38 26 -11 34 18 4 19 7 8 18
-11 10 -14 10 -18 1 -7 -20 -19 -16 -72 22 -26 19 -51 35 -55 35 -3 0 11 -16
33 -35 21 -19 43 -35 48 -35 5 0 16 -11 23 -25 9 -16 28 -29 52 -36 56 -15
174 -132 183 -181 18 -93 -31 -105 -105 -26 -46 49 -48 50 -59 30 -15 -28 -42
-28 -68 1 -30 31 -47 169 -24 192 15 15 14 15 -2 9 -9 -3 -24 -1 -32 6 -14 11
-15 8 -9 -27 5 -35 3 -43 -17 -57 -45 -31 -79 -11 -79 48 0 14 -4 26 -10 26
-5 0 -10 -15 -10 -34 0 -41 -69 -136 -100 -136 -26 0 -50 27 -50 56 0 30 -11
31 -36 3 -10 -12 -49 -36 -86 -55 -67 -34 -108 -43 -108 -24 0 6 9 10 19 10
18 0 68 56 59 65 -2 3 -18 1 -35 -4 -30 -9 -53 1 -53 22 0 18 43 69 65 77 17
7 21 14 18 34 -3 15 -1 26 6 26 6 0 11 9 11 20 0 22 26 28 33 8 2 -7 5 1 5 17
1 17 2 37 2 47 1 9 12 19 26 22 28 7 30 18 9 36 -8 7 -15 18 -15 24 0 7 -12
22 -26 35 -29 25 -63 95 -64 129 0 15 7 26 19 29 11 3 22 11 25 18 3 8 -2 11
-14 8 -12 -3 -32 7 -55 30 l-37 36 21 30 c21 29 83 51 145 51 13 0 26 6 29 14
7 19 -42 64 -77 70 l-29 5 22 -23z"/>
<path d="M194 1354 c-4 -22 -2 -40 5 -47 16 -16 14 -47 -4 -47 -9 0 -15 -9
-15 -22 0 -21 0 -21 21 -2 31 28 43 54 30 67 -14 14 -14 37 0 37 7 0 18 -8 25
-17 11 -15 13 -16 14 -2 0 15 -49 69 -63 69 -3 0 -9 -16 -13 -36z"/>
<path d="M1493 1265 c1 -79 3 -91 13 -73 18 36 25 115 12 143 -20 45 -26 27
-25 -70z"/>
<path d="M1584 1331 c3 -5 -1 -12 -10 -15 -8 -3 -14 -14 -13 -23 1 -10 -1 -26
-6 -36 -4 -10 -5 -20 -2 -23 2 -3 16 17 30 45 20 41 22 51 10 55 -8 3 -12 2
-9 -3z"/>
<path d="M455 1274 c55 -50 82 -67 95 -59 13 8 -32 46 -90 74 l-45 22 40 -37z"/>
<path d="M296 1262 c-4 -7 -4 -17 0 -23 8 -13 -46 -65 -78 -75 -13 -4 -24 -1
-29 7 -7 11 -9 10 -9 -4 0 -33 29 -30 82 9 29 21 55 39 57 40 1 2 -1 15 -6 30
-6 18 -12 24 -17 16z"/>
<path d="M91 1229 c-6 -18 -11 -40 -11 -49 0 -10 -7 -21 -16 -24 -23 -9 -27
-8 -20 9 3 9 0 15 -10 15 -9 0 -14 -7 -12 -18 2 -11 -3 -26 -11 -36 -20 -23
-11 -27 33 -14 41 13 49 26 60 101 8 54 3 61 -13 16z"/>
<path d="M497 1188 c43 -46 97 -131 87 -140 -3 -3 -1 -9 5 -13 17 -10 13 32
-5 67 -19 38 -102 128 -117 128 -6 0 7 -19 30 -42z"/>
<path d="M1301 1186 c-20 -21 -22 -26 -8 -26 9 0 17 -5 17 -11 0 -5 -4 -7 -10
-4 -5 3 -10 -1 -10 -9 0 -20 21 -11 42 18 14 19 15 27 5 40 -11 16 -15 15 -36
-8z"/>
<path d="M1327 1100 c-16 -19 -16 -23 -2 -50 8 -16 15 -38 15 -50 0 -12 7 -34
15 -51 14 -26 14 -30 0 -35 -14 -6 -13 -8 2 -19 10 -7 21 -11 25 -9 16 10 7
-9 -9 -22 -10 -7 -15 -15 -12 -18 8 -9 49 32 49 49 0 8 -6 15 -14 15 -8 0 -17
8 -19 18 -11 37 -20 97 -17 107 5 17 0 69 -8 77 -4 4 -16 -1 -25 -12z"/>
<path d="M2370 1084 c-63 -32 -78 -36 -128 -32 -32 3 -79 16 -108 30 -44 21
-54 23 -69 11 -11 -7 -27 -13 -38 -13 -13 0 -3 -11 31 -35 45 -31 54 -33 81
-24 43 15 66 8 66 -20 0 -18 7 -26 28 -32 15 -4 27 -3 27 2 0 5 -4 9 -10 9 -5
0 -10 9 -10 20 0 13 9 21 28 25 53 12 147 48 170 66 13 10 30 15 39 12 11 -4
14 -2 9 5 -12 20 -40 14 -116 -24z"/>
<path d="M750 1100 c-11 -7 -3 -10 27 -10 42 0 123 -28 123 -42 0 -4 10 -13
23 -19 17 -9 14 -3 -12 24 -21 22 -47 38 -70 42 -20 4 -45 9 -56 11 -11 2 -27
-1 -35 -6z"/>
<path d="M1490 1091 c8 -6 25 -11 36 -11 12 0 33 -10 48 -21 15 -12 29 -20 31
-17 8 8 -63 48 -95 54 -26 4 -31 3 -20 -5z"/>
<path d="M1890 1071 c19 -17 38 -31 42 -31 17 0 148 -91 183 -126 41 -41 81
-122 91 -184 5 -33 11 -40 28 -40 43 0 115 -32 158 -69 l43 -38 40 18 c22 10
55 33 73 52 l34 35 -54 16 c-31 9 -65 27 -80 43 -29 32 -58 85 -58 107 0 8 -5
18 -11 22 -8 4 -9 -1 -4 -16 5 -17 4 -20 -5 -15 -10 6 -11 1 -6 -21 4 -16 36
-57 72 -92 37 -36 64 -71 62 -80 -4 -23 -52 -33 -77 -15 -12 8 -21 12 -21 9 0
-4 -19 7 -42 24 -22 16 -49 30 -60 30 -10 0 -18 5 -18 10 0 6 -9 10 -20 10
-22 0 -55 43 -45 60 3 5 13 10 21 10 10 0 9 5 -5 19 -11 11 -27 35 -36 55 -10
20 -21 36 -26 36 -5 0 -4 9 3 20 15 24 31 25 63 4 14 -9 25 -12 25 -7 0 6 -19
18 -42 29 -24 10 -46 23 -49 28 -4 5 -14 6 -23 3 -9 -4 -16 -3 -16 1 0 4 -19
7 -42 8 -23 0 -43 5 -46 12 -2 7 -9 12 -16 12 -7 0 -21 7 -32 15 -18 14 -18
14 4 10 15 -3 22 0 19 8 -6 20 -60 45 -112 52 l-50 6 35 -30z"/>
<path d="M293 1054 c-23 -20 -24 -23 -6 -14 25 12 83 10 83 -3 0 -9 122 -67
140 -67 5 0 10 5 10 10 0 6 -11 10 -25 10 -16 0 -39 14 -64 40 -25 26 -41 36
-43 28 -4 -10 -8 -10 -20 -1 -8 7 -18 10 -21 6 -4 -3 -7 -1 -7 5 0 19 -17 14
-47 -14z"/>
<path d="M233 1043 c4 -5 -7 -20 -23 -31 -16 -12 -34 -31 -40 -42 -8 -16 2
-11 40 16 49 35 58 53 30 62 -7 3 -10 0 -7 -5z"/>
<path d="M1430 994 c-8 -21 -17 -43 -19 -49 -2 -5 7 -1 19 11 14 14 21 30 18
49 -3 28 -3 28 -18 -11z"/>
<path d="M1785 1010 c-4 -6 -11 -8 -16 -5 -5 4 -9 -1 -9 -9 0 -9 -17 -35 -37
-58 -21 -22 -29 -35 -18 -28 20 12 101 110 91 110 -3 0 -8 -5 -11 -10z"/>
<path d="M1224 997 c3 -21 42 -51 51 -38 3 5 1 12 -5 16 -5 3 -10 3 -10 -1 0
-3 -9 4 -19 17 -16 19 -19 20 -17 6z"/>
<path d="M1652 983 c-18 -9 -29 -19 -27 -24 7 -10 -50 -54 -91 -71 -25 -11
-30 -17 -23 -33 4 -11 8 -14 8 -7 1 7 6 10 11 7 6 -4 17 -2 24 4 10 9 15 8 20
-5 3 -9 3 -21 -1 -27 -3 -7 3 -3 15 7 12 11 22 25 22 33 0 7 6 13 14 13 8 0
18 19 25 44 8 34 17 46 38 53 20 7 23 11 12 15 -9 3 -30 -1 -47 -9z"/>
<path d="M2765 948 c19 -62 18 -76 -10 -94 -22 -14 -31 -15 -46 -6 -16 10 -19
9 -19 -3 0 -9 -10 -27 -23 -41 -22 -24 -24 -24 -57 -9 -19 9 -42 20 -50 25 -8
5 -35 21 -60 36 -25 15 -54 35 -65 44 -19 17 -75 36 -75 26 0 -6 175 -121 240
-158 l45 -26 30 25 c47 38 101 63 139 63 50 0 84 -34 138 -138 19 -37 -5 -50
-177 -101 -120 -35 -236 -124 -283 -218 -11 -21 -27 -62 -36 -90 -10 -29 -23
-54 -29 -54 -7 -1 -22 -3 -35 -4 -13 -1 -30 5 -39 13 -14 14 -15 14 -11 -4 2
-12 -6 -25 -24 -36 -17 -11 -31 -32 -38 -57 -6 -22 -23 -54 -37 -72 l-27 -32
38 24 c26 17 42 37 52 64 16 49 32 60 114 86 36 11 84 33 106 49 58 41 90 51
159 52 63 0 52 16 -12 17 -40 1 -123 -20 -123 -31 0 -4 -5 -8 -11 -8 -7 0 -18
-8 -25 -17 -24 -34 -25 -4 -1 44 28 55 86 112 200 197 74 56 78 58 107 46 17
-7 32 -11 33 -9 2 2 8 15 13 28 10 24 11 24 44 -25 18 -27 46 -64 62 -82 24
-28 28 -30 28 -12 0 11 -20 45 -45 76 -47 57 -54 74 -32 74 21 0 50 42 49 72
0 16 -12 42 -26 59 -14 17 -29 41 -32 55 -3 13 -10 22 -14 19 -5 -3 -22 7 -39
21 -20 16 -39 24 -51 21 -15 -4 -20 0 -20 13 0 41 11 50 62 50 31 0 47 4 43
10 -4 6 -10 8 -15 5 -5 -3 -11 -1 -14 4 -3 5 -15 7 -26 4 -11 -3 -31 2 -45 11
-33 21 -39 20 -30 -6z"/>
<path d="M101 923 c-29 -30 -38 -34 -67 -30 -50 8 -44 -17 7 -32 23 -7 42 -11
42 -9 6 11 25 40 45 66 32 44 13 47 -27 5z"/>
<path d="M513 908 c7 -18 15 -36 20 -39 4 -3 8 -23 10 -44 l2 -38 -107 0 c-60
0 -108 -4 -108 -9 0 -4 -7 -8 -15 -8 -8 0 -15 5 -15 11 0 8 -5 8 -15 -1 -11
-9 -15 -9 -15 -1 0 7 -4 10 -9 7 -15 -10 -64 13 -99 47 -25 24 -35 28 -44 19
-6 -6 -10 -13 -7 -15 2 -2 30 -20 61 -41 l57 -39 88 9 c111 11 179 11 222 2
l33 -8 -7 38 c-7 36 -51 142 -59 142 -2 0 1 -15 7 -32z"/>
<path d="M1314 808 c-15 -24 -35 -49 -46 -56 -10 -7 -18 -18 -18 -24 0 -19 49
33 75 79 30 55 23 56 -11 1z"/>
<path d="M99 703 c-19 -19 -26 -31 -16 -28 9 4 17 11 17 16 0 17 55 37 90 32
19 -3 33 -3 30 0 -3 3 -24 8 -47 10 -37 5 -44 1 -74 -30z"/>
<path d="M2228 634 c2 -19 8 -31 13 -28 14 8 11 51 -4 57 -9 3 -12 -5 -9 -29z"/>
<path d="M2238 533 c-7 -70 -45 -151 -91 -189 l-29 -24 26 -21 c55 -43 72
-110 42 -169 -9 -18 -16 -40 -16 -49 1 -9 14 10 30 43 28 57 28 59 12 105 -8
25 -26 56 -39 68 -26 25 -30 43 -8 43 8 0 15 7 15 15 0 8 5 15 10 15 6 0 19
18 29 40 10 22 21 37 25 33 4 -4 4 0 1 9 -4 10 -3 23 1 30 11 17 12 45 4 82
-5 26 -7 21 -12 -31z"/>
<path d="M0 505 c0 -9 11 -20 25 -25 31 -12 31 -16 0 -62 -30 -45 -31 -52 -5
-38 12 6 28 27 38 46 l16 35 -31 30 c-36 33 -43 35 -43 14z"/>
<path d="M885 449 c5 -13 9 -63 10 -111 1 -48 4 -90 7 -93 6 -6 7 3 8 95 0 97
-1 103 -18 120 -14 12 -14 11 -7 -11z"/>
<path d="M1147 428 c6 -7 10 -20 11 -28 0 -8 7 -43 15 -77 8 -34 12 -64 9 -67
-3 -3 5 -6 17 -6 22 0 22 1 9 23 -8 12 -18 38 -22 56 -13 71 -27 111 -38 111
-7 0 -7 -4 -1 -12z"/>
<path d="M1531 418 c-1 -16 2 -28 7 -28 4 0 52 -9 106 -20 120 -24 151 -19
126 20 -8 13 -10 12 -10 -2 0 -16 -10 -22 -31 -20 -63 8 -107 16 -119 22 -8 4
-26 10 -40 11 -14 2 -28 13 -32 24 -5 17 -6 15 -7 -7z"/>
<path d="M1880 410 c-14 -11 -30 -20 -37 -20 -14 0 -29 -20 -15 -20 5 0 25 11
45 24 19 13 39 21 43 18 4 -4 4 -1 0 6 -9 15 -6 15 -36 -8z"/>
<path d="M2778 329 c-27 -15 -22 -27 15 -34 17 -4 56 -18 85 -31 28 -12 52
-19 52 -15 0 4 -16 26 -36 49 -28 33 -42 42 -67 42 -18 0 -40 -5 -49 -11z"/>
<path d="M2940 242 c0 -4 14 -18 30 -30 24 -18 30 -19 30 -8 0 9 -13 22 -30
31 -16 9 -30 12 -30 7z"/>
<path d="M2627 188 c-6 -4 -15 -4 -19 -2 -4 3 -8 1 -8 -3 0 -15 -92 -35 -104
-23 -12 12 -26 13 -26 1 0 -5 9 -11 21 -14 15 -4 19 -11 14 -26 -5 -18 -1 -17
47 9 43 24 65 30 119 30 36 0 88 -7 114 -15 27 -8 51 -13 53 -10 5 4 -41 30
-50 27 -4 -1 -24 6 -45 14 -41 18 -98 24 -116 12z"/>
<path d="M1167 99 c-21 -17 -36 -34 -33 -37 3 -2 12 1 21 8 12 10 15 10 15 0
0 -8 3 -10 8 -6 4 4 7 13 7 19 0 8 19 11 58 9 49 -3 56 -2 51 12 -3 9 -16 15
-27 14 -12 -1 -31 2 -42 5 -15 5 -31 -2 -58 -24z"/>
<path d="M1338 105 c-5 -22 -1 -25 41 -31 39 -6 119 -31 184 -59 30 -13 19 14
-13 30 -16 8 -32 16 -35 16 -2 0 -21 7 -42 15 -20 9 -47 14 -60 11 -13 -2 -23
-1 -23 2 0 3 -11 14 -24 23 -23 17 -24 17 -28 -7z"/>
<path d="M2680 99 c39 -31 60 -41 60 -29 0 11 -58 50 -75 50 -5 0 1 -9 15 -21z"/>
<path d="M2842 86 c15 -14 32 -26 38 -26 6 0 9 -4 5 -9 -3 -5 3 -12 12 -14 12
-3 9 -5 -8 -6 -32 -1 -88 17 -110 35 -23 20 -31 17 -19 -7 7 -11 14 -18 17
-16 2 3 21 -2 41 -10 20 -9 53 -17 72 -19 19 -1 46 -6 60 -9 22 -6 20 -2 -15
30 -22 20 -58 46 -80 57 l-40 20 27 -26z"/>
<path d="M1062 28 c-11 -30 -11 -30 8 -13 18 16 20 17 20 2 0 -24 16 -21 34 5
18 25 19 24 -20 31 -27 5 -31 2 -42 -25z"/>
<path d="M2270 40 c-7 -14 -18 -28 -24 -32 -7 -5 -4 -8 6 -8 19 0 42 34 35 53
-2 7 -10 1 -17 -13z"/>
<path d="M2515 50 c2 -4 27 -10 54 -13 28 -3 63 -13 80 -21 20 -11 56 -16 108
-15 l78 0 -86 23 c-84 23 -243 40 -234 26z"/>
</g>
</svg>
