<?xml version="1.0" standalone="no"?>
<!DOCTYPE svg PUBLIC "-//W3C//DTD SVG 20010904//EN"
 "http://www.w3.org/TR/2001/REC-SVG-20010904/DTD/svg10.dtd">
<svg version="1.0" xmlns="http://www.w3.org/2000/svg"
 width="300.000000pt" height="445.000000pt" viewBox="0 0 300.000000 445.000000"
 preserveAspectRatio="xMidYMid meet">
<metadata>
Created by potrace 1.10, written by Peter Selinger 2001-2011
</metadata>
<g transform="translate(0.000000,445.000000) scale(0.100000,-0.100000)"
fill="#000000" stroke="none">
<path d="M1274 4396 c-71 -33 -177 -135 -210 -202 -22 -45 -26 -63 -21 -104 6
-53 28 -102 59 -137 28 -30 17 -51 -48 -98 -70 -49 -189 -173 -241 -251 -74
-108 -130 -237 -163 -374 -15 -61 -30 -649 -19 -725 5 -33 19 -91 30 -129 11
-37 18 -70 15 -73 -9 -10 -92 56 -162 128 -161 169 -246 350 -275 587 -21 182
26 415 118 579 76 136 203 271 318 339 54 31 53 40 -1 20 -178 -62 -369 -210
-473 -365 -58 -86 -117 -213 -142 -308 -41 -151 -35 -466 10 -621 14 -48 23
-122 30 -257 12 -225 29 -332 78 -477 103 -310 286 -443 551 -398 149 25 173
75 102 220 -36 76 -40 91 -40 159 0 98 13 121 36 66 170 -411 291 -615 432
-729 125 -100 233 -139 392 -139 119 0 209 23 252 66 27 27 30 36 26 76 -3 29
-18 67 -38 100 -49 78 -70 165 -77 318 -10 206 22 352 89 408 40 33 90 34 116
0 45 -57 57 -253 27 -475 -30 -228 5 -316 135 -335 123 -18 266 39 375 150
214 218 347 652 396 1296 13 175 4 304 -32 461 -21 91 -41 127 -32 58 7 -53
-14 -219 -39 -300 -47 -153 -139 -277 -276 -369 -131 -88 -221 -121 -335 -121
-90 0 -128 -18 -172 -79 -34 -46 -40 -51 -76 -51 -22 0 -67 12 -102 27 -56 24
-72 26 -174 24 -62 -1 -121 3 -131 8 -10 6 -36 40 -58 76 -45 78 -70 98 -156
125 -180 56 -336 231 -389 437 -25 98 -27 290 -4 411 31 160 95 300 173 376
38 37 42 38 89 31 63 -8 90 3 170 70 62 54 168 115 196 115 7 0 24 11 37 25
29 31 30 79 4 158 -53 164 -124 226 -254 227 -48 0 -79 -7 -116 -24z m199 -30
c70 -29 139 -150 141 -246 l1 -55 -83 -40 c-45 -22 -104 -59 -131 -82 -81 -70
-110 -84 -162 -77 -60 8 -97 -11 -150 -78 -113 -143 -169 -334 -169 -576 0
-149 18 -238 70 -347 82 -171 206 -278 403 -350 42 -15 55 -27 95 -89 26 -39
62 -80 79 -91 26 -16 32 -27 33 -54 0 -27 9 -43 45 -77 52 -51 107 -69 180
-59 65 8 107 33 139 83 17 27 34 41 54 45 19 4 44 23 68 53 47 57 84 74 166
74 143 0 294 72 443 211 84 78 135 155 177 267 l33 85 9 -39 c15 -65 -17 -428
-60 -678 -81 -474 -246 -797 -459 -902 -48 -23 -76 -30 -143 -33 -94 -4 -131
7 -154 47 -27 47 -30 106 -13 244 19 146 16 363 -5 433 -7 21 -27 54 -46 73
-32 32 -38 34 -81 29 -40 -4 -54 -12 -89 -50 -60 -62 -84 -146 -91 -307 -9
-198 19 -350 81 -449 15 -23 29 -55 33 -72 13 -68 -76 -109 -237 -109 -324 0
-507 181 -742 730 -29 70 -59 123 -75 137 l-26 21 -26 -24 c-24 -22 -26 -30
-26 -112 0 -80 3 -94 39 -171 31 -68 37 -89 30 -110 -13 -37 -70 -53 -189 -55
-88 0 -107 3 -156 26 -139 64 -236 213 -294 446 -31 129 -42 216 -50 402 -5
118 -13 179 -33 255 -24 92 -26 117 -26 305 0 196 1 209 27 294 50 160 132
299 236 401 58 56 64 52 21 -14 -45 -72 -106 -208 -129 -290 -79 -284 -30
-591 131 -833 72 -108 141 -184 220 -243 109 -82 150 -52 113 85 -29 108 -33
168 -25 475 8 334 16 384 76 528 60 141 179 298 299 394 118 94 124 109 76
196 -64 114 -52 169 57 278 84 83 132 107 215 108 26 1 62 -5 80 -13z m228
-2072 c27 -10 80 -17 139 -18 87 -1 95 -3 95 -21 0 -29 -57 -62 -121 -70 -48
-6 -63 -3 -101 17 -59 30 -91 71 -73 93 15 18 9 18 61 -1z"/>
<path d="M2575 4251 c-47 -12 -71 -28 -109 -74 -45 -56 -106 -183 -106 -223 0
-52 9 -63 73 -96 39 -19 95 -63 153 -119 126 -122 143 -124 259 -37 85 65 124
124 132 200 7 70 -21 136 -95 221 -63 74 -106 103 -179 122 -61 16 -81 17
-128 6z m174 -67 c87 -44 190 -184 191 -259 0 -40 -41 -124 -76 -156 -51 -47
-108 -79 -138 -79 -22 0 -47 17 -111 79 -45 43 -108 93 -140 112 -32 19 -63
42 -69 51 -24 39 64 209 133 255 50 33 139 32 210 -3z"/>
<path d="M1434 3322 c-84 -53 -181 -207 -191 -303 -12 -124 90 -236 191 -208
61 17 226 188 260 271 27 62 -14 186 -76 229 -45 32 -141 38 -184 11z m153
-42 c40 -24 63 -68 70 -134 5 -48 3 -54 -40 -111 -92 -122 -166 -185 -218
-185 -37 0 -94 51 -110 97 -15 46 -7 102 25 166 29 60 96 144 135 169 35 24
98 23 138 -2z"/>
<path d="M2214 3221 c-62 -28 -124 -120 -124 -181 0 -67 101 -281 155 -328 44
-40 100 -43 160 -9 120 68 137 229 45 423 -21 44 -41 69 -66 85 -50 30 -118
35 -170 10z m136 -41 c29 -15 45 -33 64 -74 78 -164 72 -293 -17 -357 -80 -58
-136 -27 -203 116 -61 128 -72 176 -52 217 49 103 126 140 208 98z"/>
<path d="M1633 2608 c-25 -12 -31 -50 -10 -65 6 -5 35 -18 62 -28 49 -18 97
-56 106 -84 4 -10 14 -5 35 17 29 28 86 52 127 52 31 0 57 20 57 44 0 44 -117
77 -269 75 -47 0 -96 -5 -108 -11z m234 -39 c67 -12 80 -25 36 -35 -16 -4 -45
-16 -65 -27 l-38 -21 -22 21 c-13 11 -38 28 -55 37 -18 9 -33 21 -33 26 0 13
98 13 177 -1z"/>
<path d="M88 799 c-33 -19 -21 -80 66 -326 156 -443 165 -463 206 -463 36 0
34 -3 181 334 43 98 49 107 57 85 101 -277 139 -375 154 -395 23 -28 59 -31
80 -6 23 26 280 719 276 745 -2 13 -14 25 -31 31 -48 17 -57 3 -210 -354 -9
-19 -16 -27 -16 -18 -2 47 -94 335 -113 355 -19 21 -31 23 -109 23 -74 0 -90
-3 -97 -17 -17 -32 -21 -77 -13 -141 l8 -64 -51 -78 c-28 -43 -54 -79 -58 -79
-5 -1 -8 9 -8 20 0 22 -65 273 -82 318 -5 14 -15 29 -21 33 -18 11 -199 9
-219 -3z m186 -35 c16 -6 37 -69 76 -224 27 -106 42 -132 78 -128 20 2 38 21
79 81 l53 78 0 93 c0 104 1 106 70 106 77 0 86 -9 119 -117 16 -54 37 -123 45
-154 21 -77 59 -108 91 -76 17 17 62 107 110 219 39 92 75 141 61 83 -7 -29
-157 -434 -218 -588 -22 -57 -35 -77 -47 -75 -10 2 -40 67 -88 193 -110 288
-118 288 -252 -16 -42 -95 -82 -174 -89 -177 -7 -2 -20 14 -32 40 -30 68 -220
610 -220 628 0 9 5 21 12 28 12 12 124 17 152 6z"/>
<path d="M1196 794 c-9 -8 -16 -30 -16 -47 0 -39 223 -672 249 -707 25 -34 65
-38 84 -8 20 31 177 392 177 407 0 22 18 10 25 -16 14 -60 138 -379 153 -395
20 -23 54 -23 75 0 9 9 77 179 151 377 119 318 133 362 122 380 -7 11 -21 21
-30 23 -38 8 -63 -27 -134 -191 -40 -91 -72 -170 -72 -176 0 -6 -3 -11 -8 -11
-4 0 -17 40 -30 88 -40 156 -73 253 -93 273 -16 16 -33 19 -109 19 -111 0
-113 -3 -108 -134 l3 -93 -52 -78 c-51 -77 -52 -78 -58 -49 -34 147 -89 331
-103 342 -25 19 -206 16 -226 -4z m198 -39 c15 -16 31 -63 67 -209 15 -60 31
-99 48 -118 l26 -30 26 21 c14 11 45 49 68 84 40 62 41 65 41 153 0 57 4 94
12 102 14 14 87 16 121 3 29 -11 44 -45 87 -203 23 -82 39 -123 56 -139 l24
-22 24 22 c13 12 52 86 86 164 62 141 90 189 90 155 0 -16 -190 -531 -232
-631 -35 -82 -42 -73 -138 188 -52 143 -71 175 -100 175 -29 0 -47 -30 -129
-214 -85 -189 -95 -206 -111 -190 -10 10 -100 253 -196 530 -59 171 -58 174
47 174 47 0 72 -5 83 -15z"/>
<path d="M2322 794 l-22 -15 0 -369 c0 -322 2 -371 16 -384 12 -12 37 -16 109
-16 83 0 96 2 105 19 6 12 10 93 10 195 l0 176 133 0 c117 0 136 2 150 18 23
25 21 48 -5 66 -18 13 -51 16 -150 16 l-128 0 0 88 c0 55 4 92 12 100 8 8 64
12 184 12 167 0 173 1 188 22 21 30 20 44 -4 68 -19 19 -33 20 -298 20 -235 0
-281 -2 -300 -16z m553 -39 c0 -6 -57 -11 -145 -12 -80 -2 -155 -5 -168 -8
-38 -9 -62 -61 -62 -137 0 -84 11 -112 49 -129 35 -16 40 -29 13 -29 -11 0
-27 -9 -38 -21 -17 -18 -20 -42 -24 -193 l-5 -171 -75 0 -75 0 -3 344 c-2 248
1 347 9 357 10 12 59 14 268 12 162 -2 256 -7 256 -13z"/>
</g>
</svg>
