<?xml version="1.0" standalone="no"?>
<!DOCTYPE svg PUBLIC "-//W3C//DTD SVG 20010904//EN"
 "http://www.w3.org/TR/2001/REC-SVG-20010904/DTD/svg10.dtd">
<svg version="1.0" xmlns="http://www.w3.org/2000/svg"
 width="300.000000pt" height="225.000000pt" viewBox="0 0 300.000000 225.000000"
 preserveAspectRatio="xMidYMid meet">
<metadata>
Created by potrace 1.10, written by Peter Selinger 2001-2011
</metadata>
<g transform="translate(0.000000,225.000000) scale(0.100000,-0.100000)"
fill="#000000" stroke="none">
<path d="M372 2245 c7 -7 229 -8 236 -1 3 3 -50 6 -118 6 -68 0 -121 -2 -118
-5z"/>
<path d="M1460 2241 c0 -16 -54 -32 -205 -61 l-40 -7 35 -2 c19 0 51 4 70 9
19 6 58 12 87 15 69 5 128 22 143 40 11 13 6 15 -39 15 -28 0 -51 -4 -51 -9z"/>
<path d="M1676 2242 c-2 -4 14 -6 37 -4 68 5 76 10 20 11 -28 0 -54 -2 -57 -7z"/>
<path d="M2094 2234 c4 -12 2 -15 -9 -10 -8 3 -15 1 -15 -4 0 -6 9 -10 20 -10
11 0 20 6 20 14 0 8 6 17 13 19 6 3 1 6 -12 6 -17 1 -22 -3 -17 -15z"/>
<path d="M1580 2219 l-35 -20 40 6 c22 4 45 11 50 17 7 8 6 9 -2 4 -6 -3 -13
-2 -15 3 -1 5 -19 0 -38 -10z"/>
<path d="M390 2194 c-14 -7 -56 -15 -94 -18 -56 -3 -71 -8 -83 -26 -13 -19
-13 -24 -2 -31 19 -12 32 -11 24 1 -11 19 25 22 51 6 21 -14 31 -15 60 -6 44
15 64 8 59 -20 -4 -20 -1 -21 38 -16 23 3 43 5 45 5 1 1 2 6 2 11 0 6 -13 10
-30 10 -16 0 -30 4 -30 10 0 22 -40 31 -81 19 -33 -11 -42 -10 -49 1 -5 8 -7
17 -5 20 6 10 168 3 198 -9 35 -14 80 -14 72 -1 -3 6 1 10 9 10 9 0 16 -4 16
-8 0 -5 21 -9 47 -11 26 -1 53 -7 60 -13 7 -5 18 -8 25 -5 8 3 1 9 -15 16 -16
6 -25 16 -22 21 4 6 3 10 -2 9 -21 -4 -33 2 -33 16 0 8 -7 15 -15 15 -8 0 -15
-5 -15 -11 0 -6 -7 -8 -16 -5 -9 3 -21 3 -27 -1 -21 -13 -58 -14 -72 -3 -8 7
-19 9 -25 5 -5 -3 -10 -1 -10 5 0 6 -4 9 -9 5 -5 -3 -12 -1 -16 5 -8 13 -24
11 -55 -6z"/>
<path d="M1190 2190 c-30 -10 -82 -21 -115 -25 -44 -6 -55 -10 -40 -15 11 -5
30 -6 41 -3 12 2 25 0 28 -6 8 -12 85 -13 131 -1 23 6 12 8 -45 10 l-75 2 48
10 c26 6 47 14 47 19 0 5 9 9 20 9 11 0 20 5 20 10 0 6 -1 10 -2 9 -2 -1 -28
-9 -58 -19z"/>
<path d="M1927 2203 c-16 -15 -5 -23 31 -22 23 1 29 3 14 6 -12 2 -20 9 -17
14 7 10 -18 13 -28 2z"/>
<path d="M1852 2191 c-6 -4 -7 -12 -3 -20 7 -10 13 -11 30 -2 11 7 21 13 21
15 0 8 -38 13 -48 7z"/>
<path d="M800 2179 c-14 -4 -43 -7 -64 -8 -53 -1 -35 -20 25 -28 65 -8 107 -6
126 7 15 9 11 10 -19 8 -28 -3 -38 0 -40 12 -2 12 -9 14 -28 9z"/>
<path d="M1788 2183 c-27 -7 -22 -23 7 -23 16 0 25 6 25 15 0 15 -2 16 -32 8z"/>
<path d="M2410 2177 c-25 -6 -48 -14 -51 -19 -3 -5 -10 -8 -15 -6 -10 2 -78
-32 -72 -37 1 -1 44 7 93 20 50 12 103 25 119 29 23 6 27 9 15 17 -17 10 -30
10 -89 -4z"/>
<path d="M1508 2163 c-26 -7 -22 -25 5 -23 56 5 68 1 65 -22 -3 -23 -38 -46
-83 -54 -30 -5 -33 11 -5 26 11 6 20 17 20 24 0 20 -50 26 -75 10 -11 -7 -50
-18 -85 -23 -36 -5 -78 -14 -93 -20 -41 -16 -56 -13 -27 5 25 15 24 15 -14 9
-53 -9 -177 -55 -171 -65 7 -12 127 -23 134 -12 3 5 58 17 121 26 63 9 125 19
138 21 30 5 28 -2 -9 -20 -19 -10 -29 -22 -25 -30 3 -8 -6 -23 -20 -34 -19
-15 -24 -26 -19 -42 5 -14 4 -19 -4 -15 -6 4 -11 15 -11 25 0 18 -3 18 -85 1
-86 -18 -115 -29 -79 -31 10 -1 22 -1 27 0 4 0 7 -4 7 -9 0 -6 35 -10 86 -10
l87 0 -6 35 -6 35 42 -1 c39 0 99 -17 69 -18 -7 -1 -11 -5 -8 -10 6 -8 -28
-25 -69 -34 -45 -10 44 -6 101 4 109 20 187 67 141 85 -7 2 -58 0 -112 -5 -96
-9 -101 -9 -118 11 -23 27 -13 34 70 49 99 18 130 44 117 95 -5 21 -12 24 -48
23 -22 -1 -49 -3 -58 -6z m-163 -93 c-11 -5 -33 -9 -50 -9 -23 -1 -26 2 -15 9
8 5 31 9 50 9 29 0 31 -2 15 -9z"/>
<path d="M925 2152 c17 -8 14 -10 -18 -16 -20 -4 -37 -11 -37 -16 0 -13 6 -12
70 10 30 10 46 19 35 19 -11 1 -31 4 -45 6 -21 5 -22 4 -5 -3z"/>
<path d="M2520 2124 c-52 -8 -150 -37 -156 -45 -3 -5 -16 -9 -29 -9 -13 0 -27
-4 -30 -10 -9 -14 17 -12 96 7 38 9 69 21 69 26 0 5 6 7 14 4 16 -6 96 12 111
24 9 9 -26 10 -75 3z"/>
<path d="M1004 2085 c-7 -13 -10 -26 -7 -29 8 -8 61 15 79 35 17 18 16 19 -22
19 -32 0 -41 -5 -50 -25z"/>
<path d="M321 2096 c4 -4 21 -11 38 -16 24 -7 31 -6 28 3 -2 7 -19 13 -38 15
-19 2 -31 1 -28 -2z"/>
<path d="M493 2079 c-24 -11 -43 -21 -43 -24 0 -2 34 -2 76 1 49 2 82 0 90 -7
11 -9 14 -8 14 4 0 21 16 25 76 20 31 -3 54 0 58 6 4 6 1 11 -6 12 -7 0 -41 3
-75 5 -37 3 -64 1 -68 -5 -3 -6 -15 -11 -26 -11 -11 0 -17 5 -14 10 10 17 -37
11 -82 -11z"/>
<path d="M265 2079 c-19 -9 -19 -9 2 -5 12 2 24 -2 27 -9 5 -14 63 -31 73 -22
3 3 -10 10 -28 15 -19 5 -33 14 -31 21 2 13 -15 13 -43 0z"/>
<path d="M945 2083 c-37 -9 -38 -22 -1 -20 21 1 36 7 36 15 0 13 -2 13 -35 5z"/>
<path d="M2209 2073 c0 -11 -3 -13 -6 -5 -5 14 -93 17 -93 3 0 -4 -19 -11 -41
-14 -23 -3 -45 -10 -48 -16 -4 -6 -12 -7 -21 -1 -13 8 -13 10 -1 10 8 0 12 2
9 5 -10 10 -58 -7 -58 -20 0 -8 -5 -17 -12 -21 -7 -5 -9 -2 -6 8 7 17 11 17
-117 -7 -122 -22 -129 -25 -117 -37 11 -11 278 17 297 32 6 4 25 8 42 8 18 0
38 4 45 9 7 4 23 6 35 5 11 -2 24 2 28 7 3 6 21 11 38 11 33 1 72 22 60 33
-13 13 -33 7 -34 -10z"/>
<path d="M1650 2070 c-19 -5 -55 -15 -79 -23 -40 -12 -42 -14 -20 -20 13 -4
35 -6 49 -6 22 0 23 1 6 8 -18 7 -16 9 14 19 18 7 54 12 79 12 25 0 53 5 61
10 18 12 -57 12 -110 0z"/>
<path d="M658 2031 c-79 -15 -124 -31 -85 -31 31 0 162 31 171 40 6 6 8 9 6 9
-3 -1 -44 -9 -92 -18z"/>
<path d="M884 2033 c-4 -10 -6 -25 -5 -32 2 -13 0 -13 -13 -2 -12 11 -14 17
-5 27 9 11 7 14 -12 14 -13 0 -19 -4 -14 -8 15 -11 19 -56 4 -47 -8 5 -10 4
-5 -3 4 -7 1 -12 -8 -12 -8 0 -19 7 -24 17 -6 10 -16 14 -26 10 -10 -4 -14
-11 -11 -17 3 -5 0 -10 -9 -10 -8 0 -16 4 -18 9 -2 6 -23 7 -48 3 l-45 -6 40
-7 c71 -14 154 -10 180 7 14 9 30 12 37 8 10 -6 10 -4 0 8 -10 13 -11 22 -2
37 6 12 7 21 1 21 -5 0 -12 -8 -17 -17z"/>
<path d="M962 2043 c-34 -7 -24 -37 12 -41 18 -2 25 -7 17 -11 -6 -4 9 -9 36
-10 26 -1 50 -6 53 -11 4 -6 14 -8 23 -4 9 3 17 1 17 -4 0 -6 -21 -14 -46 -18
-34 -5 -44 -10 -40 -21 3 -8 6 -17 6 -19 0 -3 5 -2 12 2 7 5 8 3 4 -5 -5 -7
-18 -17 -30 -22 -15 -7 -9 -8 26 -5 54 5 74 -9 28 -19 -17 -4 -35 -15 -40 -25
-9 -16 -6 -18 33 -13 23 3 49 10 57 15 10 6 7 7 -10 2 -22 -6 -23 -5 -11 9 8
10 10 24 6 34 -5 10 -7 22 -6 27 1 5 -3 12 -9 16 -8 5 0 13 19 21 39 17 39 26
1 34 -16 4 -32 11 -35 16 -4 5 -17 9 -31 9 -14 0 -24 6 -24 14 0 21 -28 27
-40 8 -9 -14 -10 -14 -5 6 4 12 5 21 3 21 -2 -1 -13 -4 -26 -6z"/>
<path d="M393 2030 c-2 -3 -8 -5 -11 -6 -88 -9 -123 -18 -118 -29 3 -8 -2 -16
-10 -19 -8 -3 -14 -10 -14 -16 0 -17 28 -11 48 10 14 15 41 22 117 30 55 6
104 16 110 21 5 6 2 9 -11 10 -67 4 -106 3 -111 -1z"/>
<path d="M2605 2033 c-16 -3 -34 -9 -40 -15 -7 -7 1 -8 25 -4 19 4 52 8 72 9
21 2 41 6 45 10 7 7 -51 7 -102 0z"/>
<path d="M180 2021 c-14 -5 -47 -13 -75 -19 -27 -6 -62 -13 -77 -16 -16 -4
-28 -11 -28 -17 0 -6 8 -8 18 -5 9 3 62 17 117 31 55 14 101 28 104 31 7 7
-31 3 -59 -5z"/>
<path d="M946 1945 c-11 -8 -28 -15 -38 -15 -11 0 -15 -5 -12 -14 3 -8 13 -12
25 -9 11 3 18 8 15 11 -3 2 5 13 17 23 26 22 20 25 -7 4z"/>
<path d="M621 1929 c-45 -5 -90 -14 -100 -19 -16 -10 25 -8 129 6 37 5 96 26
65 22 -5 0 -48 -5 -94 -9z"/>
<path d="M969 1921 c11 -7 11 -9 0 -14 -8 -3 3 -6 24 -6 49 -1 45 22 -4 26
-22 2 -29 0 -20 -6z"/>
<path d="M225 1904 c-33 -7 -97 -13 -142 -14 -53 0 -83 -4 -83 -11 0 -21 266
7 310 32 22 12 -12 10 -85 -7z"/>
<path d="M1595 1905 c-36 -11 -37 -13 -12 -14 15 -1 27 -5 27 -11 0 -6 30 -9
73 -8 l72 2 -60 3 c-72 5 -91 18 -44 31 28 9 30 10 9 10 -14 0 -43 -5 -65 -13z"/>
<path d="M790 1884 c-46 -11 -160 -30 -370 -59 -19 -3 -44 -7 -55 -9 -11 -3
-29 -5 -40 -5 -15 -1 -17 -3 -6 -10 8 -5 49 -6 92 -4 58 4 79 3 79 -6 0 -9 5
-8 15 3 8 8 15 21 15 28 0 10 2 10 9 -1 8 -12 29 -11 143 8 73 12 138 27 144
32 6 5 18 7 25 5 8 -3 30 -1 49 3 l35 9 -32 1 c-18 1 -33 6 -33 11 0 12 1 12
-70 -6z"/>
<path d="M1410 1887 c-3 -3 -32 -8 -65 -11 -135 -16 -140 -25 -10 -20 72 2
146 8 165 13 l35 9 -40 1 c-22 1 -49 4 -60 7 -11 3 -23 3 -25 1z"/>
<path d="M1561 1861 c-19 -12 -2 -70 46 -159 19 -34 40 -79 48 -100 10 -26 14
-31 14 -16 1 12 9 25 19 29 16 6 16 7 0 16 -10 6 -18 14 -18 19 0 16 57 11 74
-5 18 -18 36 -19 36 -2 0 17 -29 56 -30 40 0 -21 -18 -15 -25 8 -6 19 -8 19
-24 5 -22 -20 -35 -20 -27 -1 7 18 -15 20 -33 3 -9 -9 -12 -9 -7 -1 3 6 0 14
-6 16 -8 3 -6 6 5 6 10 1 16 5 12 10 -3 5 3 12 12 14 10 3 1 5 -19 6 -25 1
-38 6 -38 15 0 7 -7 20 -16 27 -14 11 -11 15 23 26 27 9 31 12 13 11 -40 -2
-63 12 -49 28 13 16 10 18 -10 5z"/>
<path d="M810 1827 l-55 -10 85 -13 c107 -16 112 -16 73 1 -32 14 -47 30 -18
19 8 -4 15 -1 15 5 0 13 -24 12 -100 -2z"/>
<path d="M201 1819 c-53 -9 -69 -15 -60 -22 2 -2 42 4 89 13 88 18 66 24 -29
9z"/>
<path d="M1132 1813 c-15 -11 -13 -13 18 -10 34 2 35 1 32 -33 l-3 -35 18 25
c21 30 41 36 49 15 4 -8 10 -15 16 -15 5 0 6 5 3 10 -3 6 -2 10 4 10 5 0 12
-6 14 -12 4 -10 6 -10 6 0 1 13 -10 19 -44 25 -36 7 -57 19 -45 27 6 4 -3 7
-20 7 -17 0 -38 -6 -48 -14z"/>
<path d="M1857 1823 c18 -2 50 -2 70 0 21 2 7 4 -32 4 -38 0 -55 -2 -38 -4z"/>
<path d="M1406 1789 c1 -21 -2 -29 -11 -25 -12 4 -12 0 -6 -33 1 -2 8 2 16 9
13 11 15 6 16 -36 1 -27 3 -41 6 -31 2 9 9 15 14 12 5 -4 9 -2 9 4 0 5 -6 12
-12 15 -10 5 -10 7 0 12 6 3 10 10 6 15 -3 5 -2 9 3 8 20 -3 25 2 13 16 -7 8
-9 15 -5 15 4 0 2 7 -5 15 -7 8 -16 12 -21 9 -5 -3 -8 0 -7 7 2 6 -2 13 -8 15
-6 3 -9 -8 -8 -27z"/>
<path d="M1648 1808 c-27 -6 -48 -15 -48 -20 0 -7 13 -8 33 -4 17 4 53 10 79
13 26 3 45 10 42 14 -6 11 -44 10 -106 -3z"/>
<path d="M980 1773 c0 -8 -9 -9 -36 -2 -19 6 -41 8 -47 5 -7 -2 -4 -5 6 -5 11
-1 32 -8 47 -18 26 -15 29 -15 45 0 9 10 26 17 38 17 12 0 29 5 37 10 11 7 0
9 -37 8 -32 -2 -53 -8 -53 -15z"/>
<path d="M1344 1768 c-10 -12 -13 -18 -6 -14 6 4 12 2 12 -3 0 -6 -7 -11 -16
-11 -13 0 -13 -2 2 -17 10 -10 21 -18 26 -18 5 0 13 -7 18 -15 8 -13 10 -12
10 3 0 10 5 15 10 12 6 -3 10 -1 10 5 0 7 -8 9 -21 5 -14 -5 -19 -3 -15 3 3 6
2 13 -4 17 -6 3 -8 17 -6 31 6 29 4 30 -20 2z"/>
<path d="M1152 1768 c-7 -7 -12 -18 -12 -25 0 -7 -6 -10 -14 -7 -8 3 -19 -8
-30 -30 -11 -24 -21 -33 -31 -30 -8 4 -15 1 -15 -6 0 -7 -7 -10 -14 -7 -10 4
-13 1 -10 -8 3 -8 11 -13 17 -12 6 1 11 -15 12 -35 1 -22 -3 -38 -9 -38 -7 0
-8 -3 -1 -8 7 -5 7 -17 0 -40 -6 -18 -15 -29 -19 -25 -4 4 -4 -1 0 -12 10 -26
34 -51 34 -35 0 6 4 9 9 6 5 -3 11 9 14 27 11 65 35 154 61 221 27 71 29 85 8
64z"/>
<path d="M831 1761 c-12 -8 -9 -11 11 -16 29 -8 52 1 43 16 -8 12 -36 11 -54
0z"/>
<path d="M140 1750 c10 -6 -5 -10 -50 -13 -36 -2 -9 -3 60 -1 69 1 145 7 170
12 39 8 28 10 -75 11 -78 0 -115 -3 -105 -9z"/>
<path d="M498 1724 c-3 -2 -25 -8 -49 -13 -42 -8 -42 -9 -9 -9 45 0 88 12 74
21 -6 3 -13 4 -16 1z"/>
<path d="M934 1719 c-2 -4 10 -9 28 -11 30 -3 31 -4 15 -20 -9 -9 -17 -23 -17
-32 0 -8 -8 -17 -18 -20 -9 -3 -22 -14 -27 -25 -6 -10 -25 -39 -42 -64 -21
-29 -31 -52 -26 -62 5 -15 8 -15 25 6 17 21 19 22 14 4 -5 -16 1 -23 27 -32
l32 -12 -22 18 c-13 11 -23 26 -23 35 0 9 -5 16 -11 16 -6 0 -1 12 11 28 11
15 37 52 57 82 43 65 57 80 74 80 7 0 10 3 6 6 -9 9 -98 11 -103 3z"/>
<path d="M1185 1720 c-4 -6 -11 -8 -16 -5 -5 4 -9 3 -9 -2 0 -4 -3 -19 -7 -32
-6 -22 -5 -23 9 -10 9 7 14 17 11 22 -2 4 3 7 11 7 9 0 16 7 16 15 0 17 -6 19
-15 5z"/>
<path d="M1458 1658 c-25 -7 -38 -16 -37 -26 0 -12 2 -13 6 -4 4 10 8 10 19 1
8 -6 11 -15 8 -20 -3 -5 0 -9 5 -9 6 0 11 -11 11 -25 0 -29 21 -33 41 -8 10
11 10 14 2 9 -8 -4 -13 -1 -13 8 0 9 -5 16 -11 16 -5 0 -8 4 -5 9 7 11 -18 33
-27 24 -4 -3 -7 -1 -7 5 0 7 9 12 19 12 11 0 23 5 26 10 3 6 5 10 3 9 -2 -1
-20 -6 -40 -11z"/>
<path d="M1535 1640 c0 -16 4 -30 8 -30 5 0 6 -4 2 -9 -7 -13 23 -41 43 -41 9
0 24 4 32 10 12 8 12 10 -2 15 -10 4 -20 15 -23 26 -4 11 -16 19 -28 20 -12 0
-16 3 -9 6 10 4 10 8 1 19 -17 21 -24 17 -24 -16z"/>
<path d="M1260 1641 c0 -11 -5 -23 -10 -26 -12 -7 5 -35 21 -35 11 0 7 22 -6
33 -5 5 0 5 12 2 19 -5 22 -3 16 11 -4 12 -3 15 5 10 7 -4 12 -14 12 -22 0 -8
4 -14 9 -14 6 0 9 9 8 19 0 11 -4 18 -8 15 -4 -2 -12 3 -19 11 -18 21 -40 19
-40 -4z"/>
<path d="M976 1606 c-20 -43 -21 -62 -2 -44 8 7 12 15 10 17 -2 2 1 10 7 18 6
7 8 13 3 13 -4 0 1 7 12 15 16 12 16 14 3 15 -9 0 -24 -15 -33 -34z"/>
<path d="M1383 1628 c-15 -19 -21 -69 -13 -98 7 -21 8 -22 10 -5 1 11 2 24 1
28 -1 4 5 20 13 35 16 31 7 63 -11 40z"/>
<path d="M1004 1585 c-3 -14 -11 -25 -16 -25 -6 0 -5 -6 2 -15 7 -8 18 -15 24
-15 6 0 4 5 -4 10 -12 8 -11 12 8 30 25 24 28 40 7 40 -8 0 -17 -11 -21 -25z"/>
<path d="M1246 1564 c33 -34 46 -63 22 -48 -7 5 -8 3 -4 -5 9 -14 14 -10 31
21 6 13 17 22 24 20 8 -1 10 2 4 10 -4 7 -8 17 -8 22 0 5 -6 11 -14 14 -9 3
-11 -1 -6 -17 8 -27 -13 -28 -48 -1 -38 30 -38 24 -1 -16z"/>
<path d="M1166 1555 c-16 -25 -16 -25 11 -25 22 0 25 2 13 10 -13 8 -13 10 2
10 9 0 18 -5 20 -11 2 -5 11 -7 21 -4 18 8 13 27 -6 24 -7 -1 -21 -1 -32 0
-17 1 -18 3 -5 11 8 5 10 10 4 10 -7 0 -19 -11 -28 -25z"/>
<path d="M1607 1554 c-3 -3 -3 -12 0 -20 3 -8 0 -14 -6 -14 -6 0 -10 5 -8 11
1 6 -4 14 -10 16 -10 3 -11 -1 -4 -19 5 -13 15 -22 25 -20 19 3 22 -14 4 -20
-9 -3 -8 -12 5 -32 10 -14 15 -31 12 -36 -9 -15 11 -12 22 3 11 14 11 27 0 45
-5 7 -3 12 4 12 8 0 7 5 -2 17 -8 9 -13 18 -11 20 1 1 2 12 2 23 0 19 -19 27
-33 14z"/>
<path d="M1494 1543 c-9 -3 -8 -12 3 -33 8 -17 17 -30 19 -30 3 0 2 4 -1 10
-3 5 -1 19 6 31 6 12 7 19 1 15 -6 -3 -12 -2 -14 2 -1 5 -8 7 -14 5z"/>
<path d="M935 1506 c4 -31 14 -48 25 -41 7 4 -16 65 -24 65 -2 0 -2 -11 -1
-24z"/>
<path d="M1359 1487 c-9 -7 -20 -23 -24 -37 -10 -33 -75 -111 -86 -104 -5 3
-9 1 -9 -4 0 -5 -11 -20 -24 -34 -25 -24 -25 -24 -4 -37 17 -10 19 -10 16 1
-3 7 21 38 53 69 l57 57 40 -11 c31 -8 50 -8 81 3 38 12 41 12 70 -16 17 -16
31 -35 31 -41 0 -19 25 -16 41 4 8 9 9 14 3 10 -14 -8 -98 79 -89 93 3 5 1 10
-5 10 -6 0 -8 5 -4 12 4 6 3 8 -4 4 -6 -3 -13 2 -16 11 -3 10 -3 -1 0 -23 5
-37 3 -42 -18 -48 -38 -10 -103 -7 -115 5 -9 9 -7 21 8 50 21 43 21 44 -2 26z"/>
<path d="M990 1456 c6 -16 13 -33 17 -39 3 -6 7 -24 9 -40 1 -16 8 -33 15 -38
8 -5 11 -9 7 -9 -3 0 3 -11 15 -24 12 -13 26 -22 30 -19 5 3 4 9 -3 13 -10 6
-17 26 -19 56 -1 7 -10 14 -21 17 -11 3 -20 11 -20 18 0 10 3 10 12 1 8 -8 15
-9 25 -1 18 15 17 36 -2 36 -11 0 -13 -7 -9 -21 3 -12 -7 -3 -22 19 -38 56
-47 64 -34 31z"/>
<path d="M790 1445 c-10 -12 -10 -15 1 -16 8 0 -4 -9 -26 -20 -22 -11 -32 -17
-23 -15 10 3 21 0 24 -6 5 -8 10 -5 15 8 7 17 8 17 8 2 2 -33 30 -18 49 26 11
25 11 28 -4 22 -10 -4 -20 -2 -24 4 -5 7 -11 6 -20 -5z"/>
<path d="M1155 1449 c-16 -5 -36 -7 -43 -4 -7 3 -10 0 -6 -6 3 -6 17 -8 29 -5
13 3 25 1 27 -4 2 -6 9 -1 16 10 7 11 11 20 10 19 -2 0 -16 -5 -33 -10z"/>
<path d="M927 1409 c-16 -9 -16 -11 3 -31 11 -12 23 -18 27 -14 4 4 -1 12 -11
18 -15 8 -16 12 -5 19 20 12 7 19 -14 8z"/>
<path d="M2316 1405 c-5 -14 -9 -15 -22 -4 -13 10 -17 10 -25 -2 -5 -8 -9 -22
-9 -32 0 -10 -7 -20 -15 -23 -8 -4 -15 -12 -15 -19 0 -8 -10 -17 -22 -21 -13
-4 -26 -12 -30 -18 -5 -8 -8 -7 -8 2 0 7 -4 10 -10 7 -5 -3 -10 0 -10 8 0 8 7
18 16 21 8 3 12 11 8 17 -4 8 -3 9 4 5 6 -3 16 2 22 13 6 11 17 18 24 15 8 -3
17 0 22 7 5 9 2 10 -9 6 -9 -3 -17 -1 -19 4 -2 5 -18 -3 -36 -19 -37 -34 -82
-47 -82 -26 0 18 -14 18 -30 -1 -7 -8 -18 -15 -26 -15 -7 0 -19 -10 -25 -22
-7 -13 -18 -26 -25 -31 -7 -4 -11 -15 -9 -25 2 -9 4 -21 4 -25 1 -5 5 -6 11
-2 5 3 7 12 3 20 -3 9 1 15 11 15 9 0 16 6 16 14 0 8 13 24 30 36 23 16 34 19
48 11 11 -6 22 -7 26 -4 3 4 5 -4 4 -18 -2 -16 1 -23 11 -21 12 3 12 1 0 -14
-12 -16 -12 -17 2 -12 12 5 15 1 11 -17 -2 -12 1 -26 7 -29 6 -4 11 -15 11
-25 0 -10 18 -41 40 -69 22 -27 40 -55 40 -61 0 -6 7 -8 15 -5 8 4 15 1 15 -6
0 -13 85 -9 97 5 5 4 1 5 -7 0 -10 -5 -12 -5 -5 3 6 5 19 12 30 15 12 3 4 5
-17 6 -27 1 -41 8 -57 29 -11 15 -21 21 -21 14 0 -7 9 -22 20 -34 34 -37 23
-48 -24 -27 -24 11 -36 31 -70 112 -10 25 -21 37 -34 37 -22 0 -38 40 -21 51
6 3 10 9 9 13 -1 4 1 12 3 19 4 9 8 9 15 -2 11 -16 32 -7 32 14 0 8 6 12 14 9
8 -3 19 3 25 15 10 18 9 20 -6 14 -13 -5 -15 -3 -10 11 4 10 7 21 7 26 0 4 11
8 25 8 14 0 25 -4 25 -9 0 -5 -5 -9 -12 -9 -6 0 -8 -3 -5 -6 4 -4 13 -2 21 5
8 6 20 10 27 9 8 -2 13 3 12 10 -4 17 11 15 54 -8 21 -11 43 -20 50 -20 13 0
114 -120 109 -129 -2 -3 2 -12 10 -18 23 -22 25 4 3 44 -31 55 -68 96 -98 110
-14 6 -19 12 -11 12 13 1 13 3 1 10 -8 5 -20 7 -28 4 -7 -3 -16 3 -19 12 -5
13 -8 14 -15 3 -7 -10 -13 -10 -27 -2 -12 8 -24 9 -35 3 -11 -7 -18 -5 -25 7
-8 15 -10 15 -16 -1z"/>
<path d="M1632 1402 c-13 -4 -22 -11 -21 -17 9 -42 11 -44 24 -32 11 12 31 58
23 56 -2 -1 -13 -4 -26 -7z"/>
<path d="M669 1352 c-1 -4 -1 -10 0 -14 0 -5 -5 -8 -12 -8 -8 0 -22 -9 -31
-19 -17 -19 -17 -19 3 -14 11 3 26 11 32 19 6 8 18 14 25 14 8 0 14 4 14 9 0
11 -30 23 -31 13z"/>
<path d="M773 1344 c0 -8 7 -14 15 -14 9 0 12 -6 8 -15 -3 -8 -9 -22 -12 -30
-4 -10 0 -15 10 -15 9 0 16 5 16 10 0 6 5 10 10 10 7 0 7 -6 1 -19 -13 -23 9
-58 29 -46 10 6 12 3 8 -13 -4 -13 0 -23 9 -26 32 -13 33 8 1 41 -19 20 -32
42 -30 54 2 10 -4 22 -12 25 -9 3 -16 14 -16 24 0 10 -8 20 -18 22 -11 3 -19
0 -19 -8z"/>
<path d="M1381 1353 c-9 -4 -3 -10 18 -19 28 -12 35 -12 47 0 18 19 18 22 -6
22 -11 0 -20 -4 -20 -8 0 -4 -5 -8 -11 -8 -5 0 -7 5 -4 10 7 11 -2 12 -24 3z"/>
<path d="M1648 1273 c-30 -99 -30 -103 -16 -103 9 0 9 -3 2 -8 -6 -4 -16 -17
-23 -29 -10 -19 -9 -23 4 -23 9 0 13 -5 10 -10 -4 -6 -11 -7 -17 -4 -8 5 -9
-1 -5 -17 4 -13 7 -30 7 -38 0 -9 7 -6 19 8 11 13 17 30 15 39 -5 16 -4 16 8
1 11 -13 13 4 13 113 0 70 0 128 0 128 0 0 -8 -26 -17 -57z"/>
<path d="M1103 1299 c6 -10 15 -19 20 -19 4 0 6 -4 2 -9 -3 -5 8 -9 23 -9 16
1 34 -2 40 -6 6 -3 13 -2 17 4 3 5 -7 12 -22 16 -15 4 -36 14 -46 22 -10 9
-24 17 -32 18 -11 2 -12 -2 -2 -17z"/>
<path d="M2330 1309 c0 -5 -4 -8 -9 -4 -5 3 -13 0 -16 -6 -4 -5 -13 -8 -21 -5
-17 7 -18 -6 -2 -22 17 -17 38 -15 38 3 0 22 17 18 23 -6 3 -12 3 -18 0 -15
-5 5 -33 -18 -33 -28 0 -11 49 -6 55 5 4 6 14 8 22 5 21 -8 39 4 22 15 -12 8
-11 11 1 20 13 9 12 10 -2 5 -10 -3 -20 -1 -23 4 -4 6 -16 10 -28 10 -22 1
-22 1 -3 15 19 15 19 15 -2 15 -12 0 -22 -5 -22 -11z"/>
<path d="M1567 1286 c-3 -8 -20 -17 -38 -21 -27 -6 -30 -9 -15 -17 9 -5 14
-13 11 -18 -3 -4 5 -6 17 -2 12 3 17 7 11 9 -8 3 -6 11 7 26 11 11 20 24 20
29 0 13 -7 9 -13 -6z"/>
<path d="M567 1272 c-9 -10 -13 -22 -9 -29 5 -7 13 -3 25 12 20 28 7 42 -16
17z"/>
<path d="M1234 1242 c-11 -10 -25 -17 -31 -15 -13 5 -12 -22 2 -34 4 -4 5 -3
2 4 -4 7 5 17 23 25 16 7 30 19 30 25 0 17 -3 16 -26 -5z"/>
<path d="M1922 1242 c-10 -10 -23 -17 -30 -14 -6 2 -20 -10 -30 -27 -10 -17
-22 -28 -27 -23 -4 4 -5 -2 0 -13 18 -47 18 -55 1 -49 -9 3 -16 1 -16 -5 0
-13 26 -15 34 -3 2 4 7 27 10 51 6 56 22 73 43 46 13 -16 14 -17 10 -3 -4 11
2 25 15 38 12 11 19 20 15 20 -4 0 -15 -8 -25 -18z"/>
<path d="M475 1229 c-4 -11 -4 -23 -1 -26 3 -4 1 -12 -5 -20 -8 -9 -8 -13 -1
-13 6 0 16 10 23 21 8 15 8 19 0 15 -15 -10 -14 17 1 32 9 9 9 12 1 12 -7 0
-15 -9 -18 -21z"/>
<path d="M583 1222 c-28 -31 -29 -42 -3 -35 12 3 19 11 17 17 -2 6 8 16 22 22
24 9 24 11 6 15 -13 4 -28 -3 -42 -19z"/>
<path d="M2432 1237 c-8 -10 -9 -17 -3 -21 6 -4 7 -14 4 -23 -5 -13 -2 -15 11
-10 10 4 23 7 29 7 7 0 5 6 -4 13 -9 7 -18 21 -20 31 -4 17 -5 17 -17 3z"/>
<path d="M762 1226 c-22 -12 -22 -13 -4 -29 21 -19 32 -22 32 -7 0 6 -5 9 -11
8 -6 -2 -14 3 -16 10 -3 6 2 12 11 12 17 0 40 -36 31 -50 -3 -5 0 -12 6 -16 8
-5 10 1 7 19 -3 15 -2 28 3 29 4 2 -3 10 -15 19 -18 14 -26 15 -44 5z"/>
<path d="M1301 1204 c-7 -8 -10 -18 -6 -22 4 -4 10 -2 12 4 5 14 44 6 55 -10
9 -14 22 -1 13 13 -3 6 -17 11 -31 11 -14 0 -22 4 -19 10 10 16 -8 11 -24 -6z"/>
<path d="M2260 1193 c5 -16 11 -37 13 -48 2 -11 5 -1 8 22 2 23 1 39 -3 37 -5
-3 -8 0 -8 5 0 6 -4 11 -9 11 -6 0 -7 -11 -1 -27z"/>
<path d="M1983 1202 c-7 -4 -14 -20 -17 -36 -4 -24 -3 -26 11 -14 14 11 15 9
9 -22 l-7 -35 20 35 c25 44 26 49 1 43 -21 -6 -28 12 -7 20 6 2 10 7 7 10 -3
3 -11 3 -17 -1z"/>
<path d="M2351 1184 c-17 -14 -35 -23 -41 -19 -5 3 -10 -3 -10 -14 0 -31 21
-24 59 20 39 45 36 50 -8 13z"/>
<path d="M1495 1191 c3 -5 -5 -21 -18 -35 -17 -18 -31 -24 -48 -20 l-24 5 23
-11 c18 -7 29 -6 48 7 28 18 47 47 37 57 -10 10 -25 7 -18 -3z"/>
<path d="M2061 1190 c-1 -33 26 -107 52 -145 15 -22 27 -34 27 -28 0 6 -12 25
-26 42 -25 31 -21 43 6 19 8 -7 12 -9 8 -4 -9 10 9 46 22 46 6 0 10 -7 10 -17
0 -9 3 -14 6 -10 4 3 3 14 -1 24 -5 10 -7 24 -6 31 3 22 -15 13 -27 -13 -12
-26 -35 -36 -26 -10 4 9 0 15 -10 15 -9 0 -19 14 -25 33 -5 17 -9 25 -10 17z"/>
<path d="M603 1168 c1 -9 -9 -12 -28 -11 -16 0 -24 -1 -18 -4 8 -3 11 -14 7
-31 l-6 -27 31 32 c31 32 39 53 21 53 -5 0 -9 -6 -7 -12z"/>
<path d="M765 1153 c4 -10 8 -23 8 -29 0 -6 6 -11 13 -11 9 0 9 8 2 29 -6 15
-14 28 -20 28 -6 0 -7 -8 -3 -17z"/>
<path d="M2494 1158 c-3 -4 0 -8 6 -8 6 0 8 -5 5 -11 -4 -6 -19 -7 -36 -4 -21
5 -37 1 -58 -14 -15 -11 -32 -17 -36 -13 -5 4 -5 2 -1 -5 5 -9 16 -9 49 1 58
17 91 15 95 -6 3 -15 -4 -18 -40 -19 -31 -1 -37 -3 -20 -7 25 -7 25 -12 10
-52 -6 -14 -10 -35 -10 -47 0 -13 -7 -23 -15 -23 -10 0 -12 -6 -8 -19 6 -21
-25 -120 -62 -195 -13 -27 -22 -55 -19 -63 15 -39 89 11 129 88 21 40 23 48 9
32 -11 -13 -22 -23 -25 -23 -9 0 12 75 23 78 5 2 8 8 4 13 -3 5 -1 9 4 9 15 0
0 59 -17 63 -10 3 -7 5 9 6 l25 2 -25 11 c-23 10 -23 11 -5 15 35 8 41 23 10
24 -17 0 -25 3 -18 5 7 3 9 12 6 20 -4 10 4 14 28 15 31 0 32 1 11 10 -26 10
-21 29 7 29 10 0 26 11 34 24 23 34 4 73 -35 73 -16 0 -31 -4 -34 -9z m-44
-368 c0 -29 -21 -70 -37 -70 -11 0 -11 4 -2 23 7 12 17 25 23 29 8 5 7 8 -1 8
-7 0 -10 7 -7 15 9 21 24 19 24 -5z"/>
<path d="M1776 1131 c-9 -10 -18 -41 -21 -72 -2 -30 -2 -45 1 -34 4 11 13 24
21 28 8 5 13 18 12 30 -1 12 2 30 6 40 11 26 1 30 -19 8z"/>
<path d="M1914 1127 c-6 -7 -9 -29 -7 -48 3 -26 2 -30 -6 -19 -9 12 -11 11
-11 -8 0 -13 4 -20 10 -17 6 3 10 -4 11 -17 1 -13 5 -3 10 21 5 25 7 47 4 49
-3 3 3 11 13 19 9 8 11 11 3 7 -11 -5 -13 -3 -8 9 7 20 -3 22 -19 4z"/>
<path d="M2018 1121 c-15 -18 -15 -19 13 -23 16 -3 29 -1 29 4 0 4 -4 8 -10 8
-5 0 -7 7 -4 15 8 21 -8 19 -28 -4z"/>
<path d="M398 1110 c-3 -8 -10 -31 -17 -51 -14 -44 -14 -99 -1 -99 6 0 10 15
9 33 -2 17 3 49 10 70 7 20 11 43 8 50 -3 8 -6 8 -9 -3z"/>
<path d="M534 1111 c4 -5 0 -11 -6 -13 -8 -3 -4 -9 10 -17 13 -7 26 -10 29 -8
6 7 -20 47 -30 47 -4 0 -6 -4 -3 -9z"/>
<path d="M1982 1074 c-13 -9 -22 -26 -22 -42 l0 -27 20 33 c26 43 50 41 115
-8 18 -14 19 -14 6 3 -8 9 -30 25 -50 34 -20 9 -39 18 -42 19 -3 2 -15 -4 -27
-12z"/>
<path d="M2982 1071 c-10 -16 -11 -26 -3 -34 15 -15 23 -3 19 30 l-3 28 -13
-24z"/>
<path d="M1699 1013 c-20 -46 -20 -51 -6 -118 31 -143 35 -191 27 -296 -5 -57
-12 -113 -16 -123 -7 -18 -4 -19 42 -13 27 3 75 15 106 28 60 22 138 81 138
103 0 7 19 21 43 31 162 71 351 215 362 275 3 14 9 26 15 28 10 4 15 42 6 42
-3 0 -17 -11 -32 -25 -15 -14 -21 -23 -13 -20 10 4 15 -1 15 -14 0 -12 -15
-29 -38 -43 -21 -13 -38 -27 -38 -33 -1 -15 -92 -79 -157 -110 -18 -8 -38 -25
-44 -37 l-11 -21 -13 23 -13 23 -6 -21 c-10 -31 -31 -27 -46 8 -7 17 -16 30
-21 30 -4 0 3 -20 17 -44 l24 -44 -26 -6 c-14 -4 -40 -22 -58 -40 -17 -18 -41
-36 -53 -40 -13 -4 -23 -15 -24 -24 0 -11 -3 -12 -6 -4 -7 17 -23 15 -23 -4 0
-10 -6 -14 -14 -11 -8 3 -16 2 -18 -2 -2 -5 -19 -11 -38 -15 l-36 -6 4 40 c2
22 9 40 16 40 6 0 3 5 -7 11 -9 6 -14 15 -11 21 12 19 13 128 2 128 -7 0 -7 5
1 13 6 8 8 17 5 20 -6 6 -11 41 -17 127 -1 14 -6 28 -11 32 -6 4 -6 12 0 20 5
8 1 5 -8 -5 -18 -19 -18 -19 -18 0 0 11 9 38 20 61 22 46 25 62 10 62 -6 0
-20 -21 -31 -47z"/>
<path d="M2850 1050 c-8 -5 -25 -10 -37 -10 -13 0 -23 -4 -23 -10 0 -5 9 -10
21 -10 11 0 17 -4 14 -10 -3 -5 -1 -10 4 -10 6 0 11 5 11 10 0 6 8 10 18 11
14 0 14 2 -3 9 -19 8 -19 9 3 9 12 1 22 6 22 11 0 13 -11 13 -30 0z"/>
<path d="M1578 1028 c-21 -34 -29 -58 -18 -58 6 0 10 9 10 20 0 11 5 19 12 18
7 -2 13 7 14 20 1 12 0 22 -1 22 -2 0 -9 -10 -17 -22z"/>
<path d="M2624 1018 c-3 -4 13 -8 35 -8 23 0 41 4 41 10 0 11 -69 10 -76 -2z"/>
<path d="M2060 1009 c0 -8 -13 -10 -39 -6 -29 4 -41 1 -45 -10 -9 -23 -7 -24
13 -13 11 5 40 11 65 12 25 0 46 3 46 4 0 2 -9 8 -20 14 -15 8 -20 8 -20 -1z"/>
<path d="M708 986 c-22 -16 -23 -30 -2 -22 8 3 13 2 10 -3 -6 -9 23 -25 31
-17 6 6 -8 56 -16 56 -3 0 -14 -7 -23 -14z"/>
<path d="M2844 990 c-5 -5 -20 -10 -34 -13 -14 -3 4 -3 40 0 79 7 109 20 47
20 -25 1 -49 -3 -53 -7z"/>
<path d="M840 981 c-46 -6 -45 -16 1 -19 15 -1 32 5 39 13 7 8 11 14 9 13 -2
0 -24 -4 -49 -7z"/>
<path d="M2063 963 c25 -6 21 -23 -5 -24 -19 -1 -20 -2 -5 -6 14 -3 17 -11 13
-27 -5 -20 18 -153 28 -163 3 -3 10 -2 17 3 9 5 8 10 -5 20 -11 8 -13 14 -6
19 5 3 8 11 5 16 -4 5 0 9 7 9 8 1 5 6 -7 16 -16 12 -18 18 -7 34 7 11 8 20 3
20 -10 0 -9 19 2 38 5 6 5 12 1 12 -3 0 -1 6 5 14 9 11 7 15 -11 20 -13 3 -30
5 -38 5 -11 -1 -10 -3 3 -6z"/>
<path d="M369 933 c-3 -50 4 -109 16 -144 29 -80 143 -221 208 -255 15 -8 27
-20 28 -27 0 -6 4 -34 8 -62 7 -39 5 -58 -10 -93 -24 -55 -24 -73 1 -118 23
-39 60 -74 126 -116 23 -14 57 -47 76 -72 20 -28 41 -45 53 -45 11 0 15 3 8 5
-7 3 -9 12 -6 20 4 10 0 12 -13 7 -11 -4 -15 -3 -11 4 4 6 -11 27 -33 46 -22
18 -40 38 -40 44 0 5 -13 19 -30 31 -16 13 -30 29 -30 37 0 8 -7 15 -15 15 -8
0 -15 5 -15 11 0 7 -7 17 -15 23 -20 14 -34 126 -16 126 12 0 10 31 -3 61 -4
8 -5 36 -3 62 2 34 0 47 -10 47 -7 0 -13 5 -13 11 0 5 -4 7 -10 4 -5 -3 -10 0
-10 8 0 7 -18 28 -40 46 -22 17 -40 40 -40 50 0 26 -29 49 -39 32 -9 -14 -17
-5 -41 42 -7 15 -20 27 -28 27 -9 0 -12 3 -9 6 3 4 0 16 -8 28 -19 26 -20 60
-2 49 7 -4 5 3 -4 17 -9 14 -15 40 -14 58 1 17 -2 32 -7 32 -4 0 -8 -8 -9 -17z"/>
<path d="M69 886 c14 -8 31 -12 38 -9 21 8 7 18 -29 21 -33 2 -33 2 -9 -12z"/>
<path d="M676 875 c-9 -13 -16 -33 -16 -45 0 -11 -3 -20 -7 -20 -5 0 -8 -15
-7 -32 1 -18 -3 -36 -9 -40 -6 -3 -12 -15 -13 -25 -2 -13 5 -9 27 15 16 18 29
39 29 47 0 8 5 15 10 15 6 0 10 7 10 16 0 8 -4 12 -10 9 -6 -3 -7 1 -4 9 3 9
10 13 15 10 5 -3 9 1 9 8 0 7 3 23 6 36 9 31 -19 29 -40 -3z"/>
<path d="M771 871 c17 -13 26 -15 35 -7 9 8 7 13 -10 18 -39 12 -48 8 -25 -11z"/>
<path d="M1591 823 c0 -10 -4 -34 -9 -53 -9 -31 -10 -32 -13 -10 -1 14 -2 30
-2 36 0 14 -27 14 -28 0 -1 -6 -5 0 -9 14 -5 17 -8 19 -9 8 -1 -10 -5 -18 -11
-18 -5 0 -9 -4 -7 -9 2 -8 -58 -60 -141 -124 -53 -40 -75 -59 -96 -85 -20 -23
-20 -23 0 -16 10 4 44 27 75 51 30 24 63 43 73 43 10 0 14 5 10 11 -7 11 96
113 105 103 11 -11 41 -100 41 -122 0 -13 -7 -37 -16 -55 -25 -47 -164 -250
-181 -264 -8 -6 -12 -16 -9 -21 8 -13 -18 -34 -30 -24 -4 4 -3 0 4 -9 9 -12 9
-20 -3 -35 -19 -26 -19 -63 2 -86 15 -17 15 -21 3 -29 -13 -9 -13 -10 0 -8 8
2 38 -1 67 -5 41 -6 60 -4 96 12 59 26 108 78 131 138 10 27 27 61 38 77 14
20 16 32 9 45 -9 14 -10 13 -11 -10 0 -16 -4 -28 -9 -28 -6 0 -24 -29 -41 -65
-17 -36 -35 -65 -41 -65 -5 0 -9 -6 -9 -14 0 -19 -57 -66 -79 -66 -9 0 -22 -5
-28 -11 -16 -16 -89 7 -108 34 -20 29 -19 43 6 68 15 15 18 24 10 28 -8 5 -6
15 9 33 11 15 20 31 20 37 0 6 9 15 20 21 11 6 23 22 26 36 7 27 31 28 26 0
-2 -9 2 -16 9 -16 6 0 9 8 6 20 -3 11 -1 20 4 20 5 0 9 7 9 15 0 9 7 18 15 21
8 4 15 10 15 16 0 5 -5 6 -11 2 -6 -3 -4 7 5 24 8 16 12 32 9 36 -4 3 -1 6 5
6 7 0 15 -18 18 -41 9 -51 23 -33 25 31 0 34 2 40 9 25 6 -15 9 -6 9 34 1 51
2 53 25 47 14 -3 27 -2 30 2 2 4 -5 9 -16 9 -33 3 -54 29 -39 47 8 10 9 16 1
21 -6 4 -8 23 -4 48 3 23 7 52 9 65 2 12 -1 22 -5 22 -5 0 -9 -8 -9 -17z"/>
<path d="M850 822 c0 -5 9 -12 21 -15 12 -3 18 -10 14 -16 -3 -6 -2 -11 3 -11
5 0 12 9 15 20 3 13 0 20 -8 20 -7 0 -20 3 -29 6 -9 3 -16 2 -16 -4z"/>
<path d="M536 764 c19 -30 34 -44 47 -44 12 0 -13 33 -40 54 l-25 19 18 -29z"/>
<path d="M2626 781 c-3 -5 13 -12 37 -15 67 -12 72 -12 72 -1 0 6 -13 9 -29 7
-18 -2 -26 0 -21 7 4 7 -5 11 -24 11 -16 0 -32 -4 -35 -9z"/>
<path d="M56 735 c-11 -8 -18 -16 -15 -17 40 -25 52 -29 62 -19 10 10 -2 16
-25 12 -5 0 -8 4 -8 9 0 6 5 10 10 10 6 0 10 5 10 10 0 14 -11 12 -34 -5z"/>
<path d="M834 734 c-7 -3 -9 -14 -6 -26 4 -18 2 -20 -29 -14 l-34 5 33 -11
c26 -9 32 -16 32 -39 0 -15 -5 -31 -10 -34 -6 -4 -8 -10 -5 -15 3 -5 -5 -16
-18 -25 -29 -19 -27 -61 4 -61 18 0 23 8 20 34 -1 6 3 12 9 12 5 0 10 13 10
28 0 15 6 34 12 40 10 10 10 15 1 20 -6 4 -10 25 -8 50 2 23 2 42 1 41 0 0 -6
-3 -12 -5z"/>
<path d="M647 686 c-3 -8 -3 -24 0 -35 3 -12 1 -21 -5 -21 -6 0 -10 -9 -9 -20
1 -11 5 -20 10 -20 5 0 7 -8 5 -18 -4 -12 1 -18 13 -19 24 -2 32 24 11 36 -15
10 -15 10 2 11 20 0 20 0 0 15 -10 8 -13 15 -7 15 8 0 12 11 9 32 -3 34 -20
48 -29 24z"/>
<path d="M1623 690 c-13 -5 -23 -13 -23 -16 0 -4 3 -5 6 -1 4 3 13 0 21 -8 20
-20 33 -19 33 4 0 11 6 22 13 24 6 3 3 5 -8 6 -11 0 -30 -4 -42 -9z"/>
<path d="M781 663 c-1 -7 -10 -21 -22 -31 -20 -20 -20 -20 13 -13 21 4 34 14
36 25 2 11 0 16 -6 12 -6 -3 -13 0 -15 6 -4 10 -6 10 -6 1z"/>
<path d="M63 603 c-18 -6 -16 -23 2 -23 8 0 15 -5 15 -11 0 -8 4 -8 15 1 8 6
18 9 24 6 10 -7 25 23 16 33 -3 3 -15 -1 -27 -8 -12 -8 -23 -9 -27 -3 -3 5
-12 7 -18 5z"/>
<path d="M2415 590 c-19 -8 -19 -9 3 -9 36 -1 37 -2 45 -17 4 -8 16 -14 25
-14 15 1 15 2 -2 15 -11 8 -16 15 -10 15 5 0 2 5 -6 10 -18 12 -28 12 -55 0z"/>
<path d="M1253 538 c1 -7 17 -24 36 -37 32 -22 33 -24 15 -35 -23 -13 -32 -41
-10 -33 25 10 41 -19 27 -51 -8 -17 -9 -28 -3 -30 6 -2 -3 -23 -19 -47 -29
-43 -36 -69 -20 -79 15 -10 63 105 68 165 7 71 -6 106 -50 137 -38 25 -48 27
-44 10z"/>
<path d="M38 533 c-10 -2 -18 -10 -18 -18 0 -15 46 -24 80 -14 l25 7 -25 2
c-14 1 -34 1 -45 0 -16 -2 -17 0 -6 14 7 9 12 15 10 15 -2 -1 -12 -3 -21 -6z"/>
<path d="M2762 519 c5 -15 88 -21 88 -6 0 4 -10 7 -22 7 -13 0 -34 3 -47 7
-18 4 -22 2 -19 -8z"/>
<path d="M1120 509 c-59 -15 -214 -38 -262 -39 -15 0 -34 7 -43 16 -14 15 -15
13 -11 -23 3 -21 9 -69 13 -108 3 -38 7 -72 8 -75 1 -3 7 -31 14 -63 7 -31 15
-57 18 -57 2 0 1 15 -2 33 -7 31 -7 31 11 15 11 -9 33 -44 49 -77 l30 -61 40
6 c22 4 45 9 50 12 6 4 18 5 27 4 23 -4 105 24 137 47 17 12 27 29 28 48 1 15
-1 22 -4 16 -2 -7 -11 -13 -18 -13 -7 0 -16 -7 -19 -16 -3 -8 -2 -12 4 -9 6 3
10 2 10 -2 0 -15 -58 -33 -64 -19 -3 7 -5 7 -5 -2 -1 -7 -5 -10 -11 -7 -5 3
-10 1 -10 -5 0 -7 -7 -10 -15 -6 -8 3 -15 0 -15 -7 0 -8 -3 -7 -9 2 -8 12 -12
12 -25 2 -9 -7 -27 -11 -40 -9 -17 3 -27 0 -31 -11 -5 -14 -8 -13 -17 4 -6 11
-20 30 -30 42 -11 12 -17 26 -13 32 3 6 0 11 -7 11 -12 0 -25 23 -42 73 -8 25
-8 26 -21 88 -10 49 -10 57 4 67 14 10 14 11 -4 11 -13 1 -16 4 -9 11 6 6 42
13 80 15 38 3 85 9 104 15 19 5 61 16 93 24 33 8 62 17 65 20 7 8 -16 6 -58
-5z"/>
<path d="M2130 506 c0 -8 7 -17 16 -20 24 -9 54 -7 54 4 0 6 -11 10 -25 10
-14 0 -25 5 -25 10 0 6 -4 10 -10 10 -5 0 -10 -6 -10 -14z"/>
<path d="M390 473 c0 -5 7 -17 15 -27 8 -11 15 -23 15 -28 0 -12 -48 -10 -55
2 -3 6 -1 10 4 10 6 0 11 9 11 20 0 16 -7 20 -30 20 -16 0 -30 -5 -30 -10 0
-6 11 -8 28 -4 24 7 26 5 14 -9 -10 -12 -11 -21 -2 -36 14 -27 52 -27 69 1 12
19 11 23 -5 35 -11 8 -18 19 -16 24 1 5 -2 9 -8 9 -5 0 -10 -3 -10 -7z"/>
<path d="M2250 460 c-26 -20 -13 -26 25 -11 11 5 30 2 45 -6 33 -17 50 -16 50
3 0 9 -6 14 -13 11 -7 -3 -24 1 -38 9 -32 18 -39 17 -69 -6z"/>
<path d="M1584 445 c-9 -18 -9 -24 0 -22 6 1 14 7 18 12 5 6 8 4 8 -5 1 -8 6
-4 11 9 10 26 3 43 -10 22 -6 -8 -10 -9 -12 -2 -2 5 -9 -1 -15 -14z"/>
<path d="M2043 463 c-22 -8 -14 -20 15 -27 15 -3 37 -8 50 -12 28 -8 29 7 1
24 -25 16 -49 21 -66 15z"/>
<path d="M2940 456 c0 -7 10 -16 23 -20 33 -9 37 -8 37 10 0 10 -6 14 -15 11
-8 -4 -17 -2 -20 3 -9 15 -25 12 -25 -4z"/>
<path d="M1578 390 c3 -8 7 -30 10 -48 5 -41 25 -37 30 7 5 46 -4 67 -22 52
-8 -7 -16 -8 -18 -4 -3 4 -3 1 0 -7z"/>
<path d="M1910 393 c-8 -7 -28 -25 -45 -38 -16 -13 -24 -25 -17 -25 24 0 71
30 77 51 9 26 4 29 -15 12z"/>
<path d="M1734 373 c-3 -16 -9 -39 -14 -53 -16 -47 -20 -80 -11 -80 11 0 23
27 25 58 1 13 6 26 12 30 18 11 22 47 8 60 -11 10 -15 7 -20 -15z"/>
<path d="M2546 382 c-10 -9 -7 -24 3 -17 10 5 27 -13 19 -20 -5 -5 -75 19 -84
28 -4 4 -14 7 -23 7 -11 0 -10 -5 7 -20 12 -11 30 -20 40 -20 29 0 48 -26 32
-45 -10 -12 -10 -15 2 -15 39 0 64 94 27 103 -10 3 -20 2 -23 -1z"/>
<path d="M1994 367 c-21 -11 -34 -27 -34 -42 0 -5 11 2 25 17 15 16 31 25 40
22 8 -4 15 -4 15 -1 0 11 -28 14 -46 4z"/>
<path d="M396 351 c-3 -5 1 -12 10 -15 19 -7 54 1 54 13 0 10 -58 13 -64 2z"/>
<path d="M560 352 c-28 -10 -35 -42 -9 -42 6 0 7 5 4 10 -3 6 4 14 16 18 24 9
14 23 -11 14z"/>
<path d="M185 340 c-3 -5 1 -10 10 -10 9 0 14 -4 11 -9 -3 -5 3 -11 14 -14 15
-4 20 0 20 13 0 25 -42 41 -55 20z"/>
<path d="M66 314 c-4 -10 3 -14 19 -14 33 0 41 17 10 22 -14 3 -26 0 -29 -8z"/>
<path d="M1902 318 c-14 -14 -16 -48 -3 -48 16 0 29 25 22 43 -5 14 -9 15 -19
5z"/>
<path d="M2012 318 c-14 -14 -16 -38 -4 -38 5 0 17 7 28 16 15 13 16 15 2 10
-12 -3 -15 -1 -11 10 6 17 1 18 -15 2z"/>
<path d="M2927 323 c-13 -12 -7 -23 13 -23 11 0 20 7 20 15 0 15 -21 21 -33 8z"/>
<path d="M1771 307 c-7 -9 -17 -14 -22 -11 -5 3 -6 -1 -3 -9 2 -7 0 -26 -5
-40 -9 -22 -8 -27 4 -27 8 0 15 6 15 14 0 8 7 22 16 30 8 9 14 26 12 38 -3 19
-4 20 -17 5z"/>
<path d="M2690 310 c0 -5 12 -10 27 -10 17 0 24 -3 17 -10 -15 -15 -58 -17
-59 -2 0 6 -3 12 -7 12 -32 0 -33 0 -19 -9 20 -13 -3 -23 -34 -15 -29 7 -35
-15 -10 -36 11 -10 18 -9 30 4 21 21 94 25 185 10 26 -4 31 -3 20 5 -8 6 -25
11 -37 11 -13 0 -23 5 -23 10 0 6 -6 10 -14 10 -7 0 -19 7 -26 15 -14 17 -50
20 -50 5z"/>
<path d="M300 301 c0 -12 39 -25 48 -16 7 7 -17 25 -35 25 -7 0 -13 -4 -13 -9z"/>
<path d="M2111 281 c-9 -6 0 -14 33 -26 53 -20 69 -14 38 15 -22 21 -48 25
-71 11z"/>
<path d="M2450 251 c0 -6 12 -16 28 -24 15 -7 26 -19 25 -25 -2 -7 4 -12 13
-12 14 0 14 3 4 15 -7 8 -9 15 -5 15 4 0 -4 9 -18 20 -27 21 -47 26 -47 11z"/>
<path d="M197 238 c2 -5 -5 -8 -16 -8 -25 0 -36 -16 -15 -24 8 -3 12 -2 9 4
-3 6 1 10 10 10 11 0 15 -5 11 -15 -3 -8 -1 -15 4 -15 6 0 10 6 10 14 0 15 21
26 51 26 10 0 19 4 19 9 0 5 -20 8 -44 7 -24 0 -42 -4 -39 -8z"/>
<path d="M290 225 c-7 -8 -19 -15 -26 -15 -8 0 -14 -6 -14 -14 0 -8 -8 -17
-17 -19 -13 -3 -14 -5 -3 -6 8 0 27 10 42 24 15 14 32 25 37 25 5 0 13 5 16
10 10 16 -21 12 -35 -5z"/>
<path d="M365 220 c-11 -5 -33 -21 -50 -34 -22 -19 -27 -28 -18 -37 8 -8 19
-7 42 4 17 9 31 11 31 6 0 -5 7 -9 16 -9 13 0 14 3 4 14 -8 11 -9 20 -1 33 9
16 10 16 11 1 0 -14 4 -14 25 -5 14 7 23 17 22 22 -5 13 -57 17 -82 5z"/>
<path d="M2015 210 c-3 -5 -18 -10 -33 -10 -37 0 -91 -37 -92 -63 0 -9 51 2
65 14 5 5 17 9 27 9 10 0 18 5 18 10 0 6 6 10 14 10 9 0 14 9 13 20 -1 23 -3
24 -12 10z"/>
<path d="M457 184 c-16 -13 -25 -24 -21 -24 3 0 1 -7 -6 -15 -11 -14 -8 -15
27 -13 36 3 39 5 41 35 3 42 -7 46 -41 17z"/>
<path d="M30 171 c-5 -11 -10 -22 -10 -25 0 -10 39 18 44 31 8 21 -22 15 -34
-6z"/>
<path d="M103 178 c-6 -7 -13 -22 -17 -33 -6 -16 -5 -17 5 -8 9 9 19 9 41 -3
17 -9 32 -13 35 -10 3 3 -11 13 -31 22 -28 14 -33 20 -25 31 6 7 9 13 6 13 -2
0 -9 -6 -14 -12z"/>
<path d="M2717 177 c-3 -8 5 -24 19 -36 29 -25 30 -21 5 19 -13 22 -20 27 -24
17z"/>
<path d="M2968 183 c-21 -5 -21 -8 -8 -34 6 -10 18 -19 28 -18 10 0 12 3 5 6
-7 2 -13 13 -13 23 0 10 6 21 13 23 15 7 -2 6 -25 0z"/>
<path d="M595 160 c-3 -5 -4 -14 -1 -19 3 -5 -1 -12 -10 -15 -9 -4 -14 -9 -11
-12 3 -4 20 5 36 19 29 24 31 37 5 37 -7 0 -16 -4 -19 -10z"/>
<path d="M1700 145 c0 -17 4 -23 14 -19 18 7 17 44 -1 44 -7 0 -13 -11 -13
-25z"/>
<path d="M2504 129 c1 -30 2 -30 64 -34 70 -3 71 0 13 26 -30 13 -42 14 -51 6
-10 -9 -12 -8 -7 5 3 9 0 19 -7 21 -9 4 -13 -4 -12 -24z"/>
<path d="M1551 108 c-26 -30 -40 -39 -58 -35 -13 2 -23 1 -23 -2 0 -8 40 -43
41 -36 1 3 2 9 3 14 0 4 16 20 34 36 33 27 59 66 45 64 -4 0 -23 -19 -42 -41z"/>
<path d="M2660 133 c0 -10 34 -32 49 -33 10 0 11 3 2 14 -12 14 -51 29 -51 19z"/>
<path d="M302 103 c-17 -12 -25 -13 -37 -3 -9 7 -23 9 -37 4 -13 -4 -26 -7
-30 -6 -5 1 -8 -3 -8 -9 0 -7 12 -9 35 -5 28 6 34 4 29 -8 -5 -13 -1 -13 33 0
22 9 40 22 40 30 0 8 -1 14 -1 13 -1 0 -11 -7 -24 -16z"/>
<path d="M398 114 c-4 -3 -12 -7 -20 -8 -34 -7 -70 -32 -88 -63 -11 -19 -20
-36 -20 -39 0 -6 42 16 60 32 42 37 87 72 100 77 11 4 9 6 -6 6 -11 1 -23 -2
-26 -5z"/>
<path d="M2943 107 c4 -11 1 -17 -8 -17 -8 0 -15 -4 -15 -10 0 -5 9 -10 20
-10 22 0 28 34 8 46 -8 5 -9 2 -5 -9z"/>
<path d="M1976 101 c-4 -6 -1 -11 6 -12 7 0 34 -4 61 -8 34 -6 50 -4 58 5 8
10 6 13 -8 12 -10 -1 -39 2 -64 6 -31 5 -49 4 -53 -3z"/>
<path d="M46 84 c-7 -18 16 -18 74 0 l45 14 -57 0 c-39 0 -58 -4 -62 -14z"/>
<path d="M1920 83 c1 -17 29 -45 39 -38 6 3 9 11 6 16 -9 13 -45 31 -45 22z"/>
<path d="M2438 61 c-15 -28 -15 -30 4 -48 15 -13 22 -14 25 -6 3 8 15 10 33 6
37 -7 61 2 54 21 -6 16 -58 14 -80 -5 -7 -6 -18 -8 -23 -5 -14 9 -2 36 14 36
8 0 17 5 21 12 5 7 2 9 -9 5 -9 -3 -17 -2 -19 3 -2 5 -10 -4 -20 -19z"/>
<path d="M153 65 c-3 -9 -20 -22 -37 -30 l-31 -13 27 -1 c15 -1 30 4 33 9 4 6
15 8 25 5 21 -7 37 24 18 37 -19 12 -28 10 -35 -7z"/>
<path d="M1238 63 c-5 -24 42 -45 105 -48 31 -1 47 2 47 10 0 15 -53 27 -76
18 -9 -3 -21 3 -30 16 -18 26 -41 27 -46 4z"/>
<path d="M940 52 c0 -29 20 -49 50 -50 16 0 30 3 30 7 0 5 16 7 35 5 19 -1 35
1 35 6 0 11 -53 20 -65 11 -5 -5 -20 -11 -33 -14 -17 -4 -26 1 -37 21 -8 15
-14 21 -15 14z"/>
<path d="M1127 30 c-14 -17 -14 -20 -2 -20 8 0 15 5 15 11 0 7 9 9 21 6 16 -4
18 -3 8 9 -15 19 -21 18 -42 -6z"/>
<path d="M1840 30 c0 -13 7 -20 20 -20 18 0 19 3 10 20 -6 11 -15 20 -20 20
-6 0 -10 -9 -10 -20z"/>
<path d="M2881 26 c-10 -12 -8 -15 11 -18 36 -5 108 3 108 12 0 4 -18 6 -40 3
-23 -3 -46 -1 -54 6 -10 9 -16 8 -25 -3z"/>
<path d="M2598 23 c-10 -2 -18 -9 -18 -14 0 -15 43 -7 48 9 4 12 0 13 -30 5z"/>
</g>
</svg>
